<?xml version="1.0" encoding="utf-8"?>
<!-- Generator: Adobe Illustrator 22.0.1, SVG Export Plug-In . SVG Version: 6.00 Build 0)  -->
<svg version="1.1" xmlns="http://www.w3.org/2000/svg" xmlns:xlink="http://www.w3.org/1999/xlink" x="0px" y="0px"
	 viewBox="0 0 36 36" style="enable-background:new 0 0 36 36;" xml:space="preserve">
<style type="text/css">
	.st0{display:none;}
	.st1{display:inline;fill:#246E4D;}
	.st2{display:inline;fill:#707070;}
	.st3{display:inline;fill:#BDBCBC;}
	.st4{display:inline;fill:#EAEFEC;}
	.st5{display:inline;fill:#D7E0D8;}
	.st6{fill:none;}
	.st7{fill:#FFFFFF;}
	.st8{fill:#246E4D;}
	.st9{fill:#6F6F6F;}
	.st10{fill:#6F6F6E;}
	.st11{fill:none;stroke:#1D1D1B;stroke-width:0.7087;stroke-miterlimit:10;}
	.st12{fill:#EAEFEC;}
	.st13{fill:#1D1D1B;}
	.st14{fill:#D7E0D8;}
	.st15{fill:#BDBCBC;}
</style>
<g id="Layer_1" class="st0">
</g>
<g id="locator_x5F_white">
</g>
<g id="locator_x5F_green">
</g>
<g id="operations_x5F_white">
</g>
<g id="operations_x5F_green">
</g>
<g id="metadata_x5F_white">
</g>
<g id="metadata_x5F_green">
</g>
<g id="create_x5F_white">
</g>
<g id="create_x5F_green">
</g>
<g id="messages_x5F_white">
</g>
<g id="messages_x5F_green">
</g>
<g id="progress_x5F_white">
</g>
<g id="progress_x5F_green">
</g>
<g id="settings_x5F_white">
</g>
<g id="settings_x5F_green">
</g>
<g id="infowehite">
</g>
<g id="info_x5F_green">
</g>
<g id="action_x5F_grey">
</g>
<g id="action_x5F_green">
	<g>
		<g id="sgOnVx_1_">
			<g>
				<path class="st8" d="M16.4,16.4c0.4,0.1,0.7,0.3,1.1,0.4c5.8,2.3,11.7,4.7,17.5,7.1c0.1,0,0.1,0.1,0.3,0.1
					c-2.1,0.9-4.1,1.8-6.1,2.6c0.5,0.5,1,1,1.5,1.5c1.3,1.3,2.7,2.7,4,4c0.1,0.1,0.1,0.2,0,0.3c-0.7,0.7-1.5,1.5-2.2,2.2
					c-0.1,0.1-0.2,0.1-0.3,0c-1.8-1.8-3.6-3.6-5.3-5.3c-0.1-0.2-0.2-0.2-0.3,0c-0.8,2-1.7,3.9-2.5,5.9c-0.1,0-0.1-0.1-0.1-0.1
					c-2.5-6.2-5-12.4-7.5-18.5C16.4,16.4,16.4,16.4,16.4,16.4L16.4,16.4z"/>
				<path class="st8" d="M16.4,16.4C16.4,16.3,16.4,16.3,16.4,16.4C16.4,16.3,16.4,16.3,16.4,16.4C16.4,16.3,16.4,16.3,16.4,16.4
					C16.4,16.4,16.4,16.4,16.4,16.4z"/>
			</g>
		</g>
		<path class="st8" d="M16.4,31.9c-8.6,0-15.6-7-15.6-15.6s7-15.6,15.6-15.6S32,7.7,32,16.3c0,1-0.1,2.1-0.3,3.1
			c-0.1,0.6-0.7,0.9-1.2,0.8c-0.6-0.1-0.9-0.7-0.8-1.2c0.2-0.9,0.3-1.8,0.3-2.7c0-7.4-6.1-13.5-13.5-13.5C8.9,2.8,2.9,8.9,2.9,16.3
			s6.1,13.5,13.5,13.5c0.9,0,1.7-0.1,2.5-0.2c0.6-0.1,1.1,0.3,1.2,0.8c0.1,0.6-0.3,1.1-0.8,1.2C18.3,31.8,17.3,31.9,16.4,31.9z"/>
		<path class="st8" d="M16.4,27.8c-6.3,0-11.4-5.1-11.4-11.4S10,4.9,16.4,4.9c6.3,0,11.4,5.1,11.4,11.4c0,0.6,0,1.2-0.1,1.8
			c-0.1,0.4-0.5,0.7-0.9,0.7c-0.4-0.1-0.7-0.5-0.7-0.9c0.1-0.5,0.1-1.1,0.1-1.6c0-5.4-4.4-9.9-9.9-9.9c-5.4,0-9.9,4.4-9.9,9.9
			s4.4,9.9,9.9,9.9c0.5,0,1,0,1.5-0.1c0.4-0.1,0.8,0.2,0.9,0.7c0.1,0.4-0.2,0.8-0.7,0.9C17.5,27.7,16.9,27.8,16.4,27.8z"/>
		<path class="st8" d="M16.4,21.6c-2.9,0-5.3-2.4-5.3-5.3s2.4-5.3,5.3-5.3s5.3,2.4,5.3,5.3c0,0,0,0.1,0,0.1c0,0.2-0.2,0.4-0.4,0.4
			c-0.2,0-0.4-0.2-0.4-0.4l0-0.1c0-2.5-2-4.5-4.5-4.5c-2.5,0-4.5,2-4.5,4.5s2,4.5,4.5,4.5c0.2,0,0.4,0.2,0.4,0.4
			S16.6,21.6,16.4,21.6z"/>
	</g>
	<rect x="0" y="-0.1" class="st6" width="36" height="36"/>
</g>
<g id="filter_x5F_grey">
</g>
<g id="filter_x5F_green">
</g>
<g id="grid_x5F_grey">
</g>
<g id="grid_x5F_green">
</g>
<g id="list_x5F_grey">
</g>
<g id="l_x3B_ist_x5F_green">
</g>
<g id="spatial_x5F_grey">
</g>
<g id="spatial_x5F_green">
</g>
<g id="thumbs_x5F_grey">
</g>
<g id="thumbs_x5F_green">
</g>
<g id="add_x5F_black">
</g>
<g id="add_x5F_green">
</g>
<g id="delete_x5F_black">
</g>
<g id="delete_x5F_green">
</g>
<g id="refresh_x5F_black">
</g>
<g id="refresh_x5F_green">
</g>
<g id="full_x5F_grey">
</g>
<g id="full_x5F_green">
</g>
<g id="full_x5F_lgiht">
</g>
<g id="pan_x5F_grey">
</g>
<g id="pan_x5F_green">
</g>
<g id="pan_x5F_light">
</g>
<g id="zoomin_x5F_grey">
</g>
<g id="zoomin_x5F_green">
</g>
<g id="zoomin_x5F_light">
</g>
<g id="zoomout_x5F_grey">
</g>
<g id="zoomout_x5F_green">
</g>
<g id="zoomout_x5F_light">
</g>
<g id="pointinfogrey">
</g>
<g id="pointinfo_x5F_green">
</g>
<g id="pointinfo_x5F_light">
</g>
</svg>
