<?xml version="1.0" encoding="utf-8"?>
<!-- Generator: Adobe Illustrator 22.0.1, SVG Export Plug-In . SVG Version: 6.00 Build 0)  -->
<svg version="1.1" xmlns="http://www.w3.org/2000/svg" xmlns:xlink="http://www.w3.org/1999/xlink" x="0px" y="0px"
	 viewBox="0 0 36 36" style="enable-background:new 0 0 36 36;" xml:space="preserve">
<style type="text/css">
	.st0{fill:#246E4D;}
	.st1{fill:#707070;}
	.st2{fill:#BDBCBC;}
	.st3{fill:#EAEFEC;}
	.st4{fill:#D7E0D8;}
	.st5{fill:none;}
	.st6{fill:#FFFFFF;}
	.st7{fill:#6F6F6E;}
	.st8{fill:#6F6F6F;}
	.st9{fill:none;stroke:#1D1D1B;stroke-width:0.7087;stroke-miterlimit:10;}
	.st10{fill:#1D1D1B;}
	.st11{fill:none;stroke:#246E4D;stroke-width:0.992;stroke-linecap:round;stroke-linejoin:round;stroke-miterlimit:10;}
	.st12{fill:none;stroke:#246E4D;stroke-width:0.992;stroke-miterlimit:10;}
	.st13{fill:#9EC420;}
	.st14{fill:#6BBE9F;}
	.st15{fill:#D0EBFC;}
	.st16{fill:#5BC5F2;}
	.st17{fill:#006AA9;}
	.st18{fill:#FF0000;}
	.st19{fill:#39B54A;}
	.st20{fill:#FFFF00;}
	.st21{fill:#0000FF;}
	.st22{fill:#EEE758;stroke:#A19F3D;stroke-miterlimit:10;}
	.st23{fill:#246E4D;stroke:#246E4D;stroke-width:1.4173;stroke-linecap:round;stroke-linejoin:round;stroke-miterlimit:10;}
	.st24{fill:#FFFFFF;stroke:#246E4D;stroke-miterlimit:10;}
	.st25{fill:#246E4D;stroke:#246E4D;stroke-miterlimit:10;}
</style>
<g id="Layer_1">
</g>
<g id="locator_x5F_white">
</g>
<g id="locator_x5F_green">
</g>
<g id="operations_x5F_white">
</g>
<g id="operations_x5F_green">
</g>
<g id="metadata_x5F_white">
</g>
<g id="metadata_x5F_green">
</g>
<g id="create_x5F_white">
</g>
<g id="create_x5F_green">
</g>
<g id="messages_x5F_white">
</g>
<g id="messages_x5F_green">
</g>
<g id="progress_x5F_white">
</g>
<g id="progress_x5F_green">
</g>
<g id="settings_x5F_white">
</g>
<g id="settings_x5F_green">
</g>
<g id="infowehite">
</g>
<g id="info_x5F_green">
</g>
<g id="action_x5F_grey">
	<rect x="0" y="0" class="st5" width="36" height="36"/>
</g>
<g id="action_x5F_green">
	<g>
		<g id="sgOnVx_1_">
			<g>
				<path class="st8" d="M16.3,16.3c0.4,0.1,0.7,0.3,1.1,0.4c6,2.4,11.9,4.8,17.8,7.2c0.1,0,0.1,0.1,0.3,0.1
					c-2.1,0.9-4.2,1.8-6.3,2.7c0.5,0.5,1,1,1.6,1.6c1.4,1.4,2.7,2.7,4.1,4.1c0.1,0.1,0.1,0.2,0,0.3c-0.8,0.8-1.5,1.5-2.3,2.3
					c-0.1,0.1-0.2,0.1-0.3,0c-1.8-1.8-3.6-3.6-5.4-5.4c-0.2-0.2-0.2-0.2-0.3,0.1c-0.8,2-1.7,4-2.5,6c-0.1,0-0.1-0.1-0.1-0.1
					c-2.5-6.3-5.1-12.6-7.6-18.9C16.3,16.4,16.3,16.4,16.3,16.3L16.3,16.3z"/>
				<path class="st8" d="M16.3,16.3C16.2,16.3,16.2,16.3,16.3,16.3C16.2,16.3,16.2,16.3,16.3,16.3C16.3,16.3,16.3,16.3,16.3,16.3
					C16.3,16.3,16.3,16.3,16.3,16.3z"/>
			</g>
		</g>
		<g>
			<path class="st8" d="M16.3,32.1C7.6,32.1,0.5,25,0.5,16.3S7.6,0.5,16.3,0.5c8.7,0,15.8,7.1,15.8,15.8c0,1-0.1,2.1-0.3,3.1
				c-0.1,0.7-0.9,1.2-1.6,1.1c-0.7-0.1-1.2-0.8-1.1-1.6c0.2-0.8,0.2-1.7,0.2-2.5c0-7.2-5.9-13.1-13.1-13.1S3.2,9.1,3.2,16.3
				s5.9,13.1,13.1,13.1c1,0,1.9-0.1,2.8-0.3c0.7-0.2,1.4,0.3,1.6,1c0.2,0.7-0.3,1.4-1,1.6C18.6,32,17.5,32.1,16.3,32.1z"/>
			<path class="st8" d="M16.3,27.6C10,27.6,5,22.5,5,16.3C5,10,10,4.9,16.3,4.9c6.2,0,11.3,5.1,11.3,11.3c0,0.5,0,1-0.1,1.5
				c-0.1,0.5-0.5,0.9-1.1,0.8c-0.5-0.1-0.9-0.5-0.8-1.1c0.1-0.4,0.1-0.8,0.1-1.2c0-5.2-4.2-9.4-9.4-9.4s-9.4,4.2-9.4,9.4
				s4.2,9.4,9.4,9.4c0.4,0,0.9,0,1.3-0.1c0.5-0.1,1,0.3,1.1,0.8c0.1,0.5-0.3,1-0.8,1.1C17.4,27.5,16.8,27.6,16.3,27.6z"/>
			<path class="st8" d="M15.6,21.9c0,0-0.1,0-0.1,0c-2.8-0.4-4.9-2.8-4.9-5.6c0-3.1,2.5-5.6,5.6-5.6c2.7,0,5,1.9,5.5,4.5
				c0.1,0.4-0.2,0.9-0.6,1c-0.4,0.1-0.9-0.2-1-0.6c-0.4-1.9-2-3.2-3.9-3.2c-2.2,0-4,1.8-4,4c0,2,1.5,3.7,3.5,4
				c0.4,0.1,0.8,0.5,0.7,0.9C16.4,21.6,16,21.9,15.6,21.9z"/>
		</g>
	</g>
</g>
<g id="filter_x5F_grey">
</g>
<g id="filter_x5F_green">
</g>
<g id="grid_x5F_grey">
</g>
<g id="grid_x5F_green">
</g>
<g id="list_x5F_grey">
</g>
<g id="l_x3B_ist_x5F_green">
</g>
<g id="spatial_x5F_grey">
</g>
<g id="spatial_x5F_green">
</g>
<g id="thumbs_x5F_grey">
</g>
<g id="thumbs_x5F_green">
</g>
<g id="add_x5F_black">
</g>
<g id="add_x5F_green">
</g>
<g id="delete_x5F_black">
</g>
<g id="delete_x5F_green">
</g>
<g id="refresh_x5F_black">
</g>
<g id="refresh_x5F_green">
</g>
<g id="full_x5F_grey">
</g>
<g id="full_x5F_green">
</g>
<g id="full_x5F_lgiht">
</g>
<g id="pan_x5F_grey">
</g>
<g id="pan_x5F_green">
</g>
<g id="pan_x5F_light">
</g>
<g id="zoomin_x5F_grey">
</g>
<g id="zoomin_x5F_green">
</g>
<g id="zoomin_x5F_light">
</g>
<g id="zoomout_x5F_grey">
</g>
<g id="zoomout_x5F_green">
</g>
<g id="zoomout_x5F_light">
</g>
<g id="pointinfogrey">
</g>
<g id="pointinfo_x5F_green">
</g>
<g id="pointinfo_x5F_light">
</g>
</svg>
