<?xml version="1.0" encoding="utf-8"?>
<!-- Generator: Adobe Illustrator 22.0.1, SVG Export Plug-In . SVG Version: 6.00 Build 0)  -->
<svg version="1.1" xmlns="http://www.w3.org/2000/svg" xmlns:xlink="http://www.w3.org/1999/xlink" x="0px" y="0px"
	 viewBox="0 0 36 36" style="enable-background:new 0 0 36 36;" xml:space="preserve">
<style type="text/css">
	.st0{display:none;}
	.st1{display:inline;fill:#246E4D;}
	.st2{display:inline;fill:#707070;}
	.st3{display:inline;fill:#BDBCBC;}
	.st4{display:inline;fill:#EAEFEC;}
	.st5{display:inline;fill:#D7E0D8;}
	.st6{fill:none;}
	.st7{fill:#FFFFFF;}
	.st8{fill:#246E4D;}
	.st9{fill:#6F6F6F;}
	.st10{fill:#6F6F6E;}
	.st11{fill:none;stroke:#1D1D1B;stroke-width:0.7087;stroke-miterlimit:10;}
	.st12{fill:#EAEFEC;}
	.st13{fill:#1D1D1B;}
	.st14{fill:#D7E0D8;}
	.st15{fill:#BDBCBC;}
</style>
<g id="Layer_1" class="st0">
</g>
<g id="locator_x5F_white">
</g>
<g id="locator_x5F_green">
</g>
<g id="operations_x5F_white">
</g>
<g id="operations_x5F_green">
</g>
<g id="metadata_x5F_white">
</g>
<g id="metadata_x5F_green">
</g>
<g id="create_x5F_white">
</g>
<g id="create_x5F_green">
	<rect x="0" y="-0.1" class="st8" width="36" height="36"/>
	<g>
		<path class="st7" d="M21.7,29.9l-17,0V4.7h25.2v17.1l2.7,2.7V4.7c0-1.5-1.2-2.7-2.7-2.7H4.7C3.2,2,2,3.2,2,4.7v25.3
			c0,1.5,1.2,2.7,2.7,2.7h19.7L21.7,29.9z"/>
		<path class="st7" d="M23.3,18c0.4-1,0.5-2,0.5-3.1c0-4.9-4-8.9-8.9-8.9c-1.1,0-2.1,0.2-3.1,0.5l6.9,6.9l-5.3,5.3l-6.9-6.9
			c-0.3,1-0.5,2-0.5,3.1c0,4.9,4,8.9,8.9,8.9c1.1,0,2.1-0.2,3.1-0.5l10.8,10.8l5.3-5.3L23.3,18z"/>
	</g>
</g>
<g id="messages_x5F_white">
</g>
<g id="messages_x5F_green">
</g>
<g id="progress_x5F_white">
</g>
<g id="progress_x5F_green">
</g>
<g id="settings_x5F_white">
</g>
<g id="settings_x5F_green">
</g>
<g id="infowehite">
</g>
<g id="info_x5F_green">
</g>
<g id="action_x5F_grey">
</g>
<g id="action_x5F_green">
</g>
<g id="filter_x5F_grey">
</g>
<g id="filter_x5F_green">
</g>
<g id="grid_x5F_grey">
</g>
<g id="grid_x5F_green">
</g>
<g id="list_x5F_grey">
</g>
<g id="l_x3B_ist_x5F_green">
</g>
<g id="spatial_x5F_grey">
</g>
<g id="spatial_x5F_green">
</g>
<g id="thumbs_x5F_grey">
</g>
<g id="thumbs_x5F_green">
</g>
<g id="add_x5F_black">
</g>
<g id="add_x5F_green">
</g>
<g id="delete_x5F_black">
</g>
<g id="delete_x5F_green">
</g>
<g id="refresh_x5F_black">
</g>
<g id="refresh_x5F_green">
</g>
<g id="full_x5F_grey">
</g>
<g id="full_x5F_green">
</g>
<g id="full_x5F_lgiht">
</g>
<g id="pan_x5F_grey">
</g>
<g id="pan_x5F_green">
</g>
<g id="pan_x5F_light">
</g>
<g id="zoomin_x5F_grey">
</g>
<g id="zoomin_x5F_green">
</g>
<g id="zoomin_x5F_light">
</g>
<g id="zoomout_x5F_grey">
</g>
<g id="zoomout_x5F_green">
</g>
<g id="zoomout_x5F_light">
</g>
<g id="pointinfogrey">
</g>
<g id="pointinfo_x5F_green">
</g>
<g id="pointinfo_x5F_light">
</g>
</svg>
