<?xml version="1.0" encoding="utf-8"?>
<!-- Generator: Adobe Illustrator 22.0.1, SVG Export Plug-In . SVG Version: 6.00 Build 0)  -->
<svg version="1.1" xmlns="http://www.w3.org/2000/svg" xmlns:xlink="http://www.w3.org/1999/xlink" x="0px" y="0px"
	 viewBox="0 0 36 36" style="enable-background:new 0 0 36 36;" xml:space="preserve">
<style type="text/css">
	.st0{display:none;}
	.st1{display:inline;fill:#246E4D;}
	.st2{display:inline;fill:#707070;}
	.st3{display:inline;fill:#BDBCBC;}
	.st4{display:inline;fill:#EAEFEC;}
	.st5{display:inline;fill:#D7E0D8;}
	.st6{fill:none;}
	.st7{fill:#FFFFFF;}
	.st8{fill:#246E4D;}
	.st9{fill:#6F6F6F;}
	.st10{fill:#6F6F6E;}
	.st11{fill:none;stroke:#1D1D1B;stroke-width:0.7087;stroke-miterlimit:10;}
	.st12{fill:#EAEFEC;}
	.st13{fill:#1D1D1B;}
	.st14{fill:#D7E0D8;}
	.st15{fill:#BDBCBC;}
</style>
<g id="Layer_1" class="st0">
</g>
<g id="locator_x5F_white">
</g>
<g id="locator_x5F_green">
</g>
<g id="operations_x5F_white">
</g>
<g id="operations_x5F_green">
</g>
<g id="metadata_x5F_white">
	<rect x="0" y="0" class="st6" width="36" height="36"/>
	<path class="st7" d="M34,14.2V4.8C34,3.3,32.7,2,31.2,2h-8.5v0c-0.8,0-1.5,0.3-2,0.9l0,0L2.7,20.3C2.3,20.8,2,21.5,2,22.2
		c0,0.8,0.3,1.4,0.8,1.9l0,0l8.8,8.8l0.1,0.1c0.5,0.5,1.2,0.8,2,0.8c0.8,0,1.6-0.4,2.1-0.9l0.1-0.1L33.3,16l0,0
		C33.7,15.5,34,14.9,34,14.2L34,14.2z M28.5,10.2c-1.5,0-2.7-1.2-2.7-2.7c0-1.5,1.2-2.7,2.7-2.7c1.5,0,2.7,1.2,2.7,2.7
		C31.2,9,30,10.2,28.5,10.2z"/>
</g>
<g id="metadata_x5F_green">
</g>
<g id="create_x5F_white">
</g>
<g id="create_x5F_green">
</g>
<g id="messages_x5F_white">
</g>
<g id="messages_x5F_green">
</g>
<g id="progress_x5F_white">
</g>
<g id="progress_x5F_green">
</g>
<g id="settings_x5F_white">
</g>
<g id="settings_x5F_green">
</g>
<g id="infowehite">
</g>
<g id="info_x5F_green">
</g>
<g id="action_x5F_grey">
</g>
<g id="action_x5F_green">
</g>
<g id="filter_x5F_grey">
</g>
<g id="filter_x5F_green">
</g>
<g id="grid_x5F_grey">
</g>
<g id="grid_x5F_green">
</g>
<g id="list_x5F_grey">
</g>
<g id="l_x3B_ist_x5F_green">
</g>
<g id="spatial_x5F_grey">
</g>
<g id="spatial_x5F_green">
</g>
<g id="thumbs_x5F_grey">
</g>
<g id="thumbs_x5F_green">
</g>
<g id="add_x5F_black">
</g>
<g id="add_x5F_green">
</g>
<g id="delete_x5F_black">
</g>
<g id="delete_x5F_green">
</g>
<g id="refresh_x5F_black">
</g>
<g id="refresh_x5F_green">
</g>
<g id="full_x5F_grey">
</g>
<g id="full_x5F_green">
</g>
<g id="full_x5F_lgiht">
</g>
<g id="pan_x5F_grey">
</g>
<g id="pan_x5F_green">
</g>
<g id="pan_x5F_light">
</g>
<g id="zoomin_x5F_grey">
</g>
<g id="zoomin_x5F_green">
</g>
<g id="zoomin_x5F_light">
</g>
<g id="zoomout_x5F_grey">
</g>
<g id="zoomout_x5F_green">
</g>
<g id="zoomout_x5F_light">
</g>
<g id="pointinfogrey">
</g>
<g id="pointinfo_x5F_green">
</g>
<g id="pointinfo_x5F_light">
</g>
</svg>
