<?xml version="1.0" encoding="utf-8"?>
<!-- Generator: Adobe Illustrator 22.0.1, SVG Export Plug-In . SVG Version: 6.00 Build 0)  -->
<svg version="1.1" xmlns="http://www.w3.org/2000/svg" xmlns:xlink="http://www.w3.org/1999/xlink" x="0px" y="0px"
	 viewBox="0 0 21 21" style="enable-background:new 0 0 21 21;" xml:space="preserve">
<style type="text/css">
	.st0{fill:#246E4D;}
	.st1{fill:#707070;}
	.st2{fill:#BDBCBC;}
	.st3{fill:#EAEFEC;}
	.st4{fill:#D7E0D8;}
	.st5{fill:none;}
	.st6{fill:#FFFFFF;}
	.st7{fill:#6F6F6E;}
	.st8{fill:#6F6F6F;}
	.st9{fill:none;stroke:#1D1D1B;stroke-width:0.7087;stroke-miterlimit:10;}
	.st10{fill:#1D1D1B;}
	.st11{fill:none;stroke:#246E4D;stroke-width:0.992;stroke-linecap:round;stroke-linejoin:round;stroke-miterlimit:10;}
	.st12{fill:none;stroke:#246E4D;stroke-width:0.992;stroke-miterlimit:10;}
	.st13{fill:#9EC420;}
	.st14{fill:#6BBE9F;}
	.st15{fill:#D0EBFC;}
	.st16{fill:#5BC5F2;}
	.st17{fill:#006AA9;}
	.st18{fill:#FF0000;}
	.st19{fill:#39B54A;}
	.st20{fill:#FFFF00;}
	.st21{fill:#0000FF;}
	.st22{fill:#EEE758;stroke:#A19F3D;stroke-miterlimit:10;}
	.st23{fill:#246E4D;stroke:#246E4D;stroke-width:1.4173;stroke-linecap:round;stroke-linejoin:round;stroke-miterlimit:10;}
	.st24{fill:#FFFFFF;stroke:#246E4D;stroke-miterlimit:10;}
	.st25{fill:#246E4D;stroke:#246E4D;stroke-miterlimit:10;}
</style>
<g id="Layer_1">
</g>
<g id="locator_x5F_white">
</g>
<g id="locator_x5F_green">
</g>
<g id="operations_x5F_white">
</g>
<g id="operations_x5F_green">
</g>
<g id="metadata_x5F_white">
</g>
<g id="metadata_x5F_green">
</g>
<g id="create_x5F_white">
</g>
<g id="create_x5F_green">
</g>
<g id="messages_x5F_white">
</g>
<g id="messages_x5F_green">
</g>
<g id="progress_x5F_white">
</g>
<g id="progress_x5F_green">
</g>
<g id="settings_x5F_white">
</g>
<g id="settings_x5F_green">
</g>
<g id="infowehite">
</g>
<g id="info_x5F_green">
</g>
<g id="action_x5F_grey">
</g>
<g id="action_x5F_green">
</g>
<g id="filter_x5F_grey">
</g>
<g id="filter_x5F_green">
</g>
<g id="grid_x5F_grey">
</g>
<g id="grid_x5F_green">
</g>
<g id="list_x5F_grey">
</g>
<g id="l_x3B_ist_x5F_green">
</g>
<g id="spatial_x5F_grey">
</g>
<g id="spatial_x5F_green">
</g>
<g id="thumbs_x5F_grey">
</g>
<g id="thumbs_x5F_green">
</g>
<g id="add_x5F_black">
</g>
<g id="add_x5F_green">
</g>
<g id="delete_x5F_black">
</g>
<g id="delete_x5F_green">
</g>
<g id="refresh_x5F_black">
</g>
<g id="refresh_x5F_green">
</g>
<g id="full_x5F_grey">
</g>
<g id="full_x5F_green">
</g>
<g id="full_x5F_lgiht">
</g>
<g id="pan_x5F_grey">
</g>
<g id="pan_x5F_green">
</g>
<g id="pan_x5F_light">
</g>
<g id="zoomin_x5F_grey">
</g>
<g id="zoomin_x5F_green">
</g>
<g id="zoomin_x5F_light">
</g>
<g id="zoomout_x5F_grey">
</g>
<g id="zoomout_x5F_green">
</g>
<g id="zoomout_x5F_light">
</g>
<g id="pointinfogrey">
</g>
<g id="pointinfo_x5F_green">
</g>
<g id="pointinfo_x5F_light">
	<g>
		<path class="st7" d="M13.4,7.4c0-0.1,0-0.3,0-0.4c0-0.1,0-0.3,0-0.4L14.2,6c0.1-0.1,0.1-0.2,0-0.3l-0.8-1.4c0-0.1-0.2-0.1-0.2-0.1
			l-1,0.4c-0.2-0.2-0.4-0.3-0.7-0.4l-0.1-1c0-0.1-0.1-0.2-0.2-0.2H9.7c-0.1,0-0.2,0.1-0.2,0.2l-0.1,1C9.1,4.4,8.9,4.5,8.7,4.7
			l-1-0.4c-0.1,0-0.2,0-0.2,0.1L6.7,5.7c-0.1,0.1,0,0.2,0,0.3l0.8,0.6c0,0.1,0,0.3,0,0.4c0,0.1,0,0.3,0,0.4L6.7,8.1
			c-0.1,0.1-0.1,0.2,0,0.3l0.8,1.4c0,0.1,0.2,0.1,0.2,0.1l1-0.4c0.2,0.2,0.4,0.3,0.7,0.4l0.1,1c0,0.1,0.1,0.2,0.2,0.2h1.6
			c0.1,0,0.2-0.1,0.2-0.2l0.1-1c0.2-0.1,0.5-0.2,0.7-0.4l1,0.4c0.1,0,0.2,0,0.2-0.1l0.8-1.4c0-0.1,0-0.2,0-0.3L13.4,7.4z M10.5,8.4
			C9.7,8.4,9.1,7.8,9.1,7s0.6-1.4,1.4-1.4c0.8,0,1.4,0.6,1.4,1.4S11.2,8.4,10.5,8.4z"/>
		<g>
			<path class="st7" d="M10.5,0.4C6.8,0.4,3.9,3.4,3.9,7c0,1.4,0.4,2.6,1.2,3.8c0.8,1,1.2,2.1,1.2,3.4v0.2c0,1.3,1.1,2.4,2.4,2.4
				h3.5c1.3,0,2.3-1.1,2.3-2.4c0-1.3,0.4-2.6,1.3-3.7C16.6,9.6,17,8.3,17,7C17,3.4,14.1,0.4,10.5,0.4z M6.4,9.8C5.9,8.9,5.6,8,5.6,7
				c0-2.7,2.2-4.9,4.9-4.9s4.9,2.2,4.9,4.9c0,1-0.3,1.9-0.8,2.7c-1.1,1.3-1.6,2.9-1.6,4.7c0,0.4-0.3,0.7-0.7,0.7l-3.5,0
				c-0.4,0-0.7-0.3-0.7-0.6v-0.1C8,12.7,7.5,11.1,6.4,9.8z"/>
			<path class="st7" d="M12.8,17.8H8.3c-0.7,0-1.3,0.6-1.3,1.3s0.6,1.3,1.3,1.3h4.5c0.7,0,1.3-0.6,1.3-1.3S13.5,17.8,12.8,17.8z"/>
		</g>
	</g>
	<rect x="0" y="0" class="st5" width="21" height="21"/>
</g>
</svg>
