<?xml version="1.0" encoding="utf-8"?>
<!-- Generator: Adobe Illustrator 22.0.1, SVG Export Plug-In . SVG Version: 6.00 Build 0)  -->
<svg version="1.1" xmlns="http://www.w3.org/2000/svg" xmlns:xlink="http://www.w3.org/1999/xlink" x="0px" y="0px"
	 viewBox="0 0 21 21" style="enable-background:new 0 0 21 21;" xml:space="preserve">
<style type="text/css">
	.st0{fill:#246E4D;}
	.st1{fill:#707070;}
	.st2{fill:#BDBCBC;}
	.st3{fill:#EAEFEC;}
	.st4{fill:#D7E0D8;}
	.st5{fill:none;}
	.st6{fill:#FFFFFF;}
	.st7{fill:#6F6F6E;}
	.st8{fill:#6F6F6F;}
	.st9{fill:none;stroke:#1D1D1B;stroke-width:0.7087;stroke-miterlimit:10;}
	.st10{fill:#1D1D1B;}
	.st11{fill:none;stroke:#246E4D;stroke-width:0.992;stroke-linecap:round;stroke-linejoin:round;stroke-miterlimit:10;}
	.st12{fill:none;stroke:#246E4D;stroke-width:0.992;stroke-miterlimit:10;}
	.st13{fill:#9EC420;}
	.st14{fill:#6BBE9F;}
	.st15{fill:#D0EBFC;}
	.st16{fill:#5BC5F2;}
	.st17{fill:#006AA9;}
	.st18{fill:#FF0000;}
	.st19{fill:#39B54A;}
	.st20{fill:#FFFF00;}
	.st21{fill:#0000FF;}
	.st22{fill:#EEE758;stroke:#A19F3D;stroke-miterlimit:10;}
	.st23{fill:#246E4D;stroke:#246E4D;stroke-width:1.4173;stroke-linecap:round;stroke-linejoin:round;stroke-miterlimit:10;}
	.st24{fill:#FFFFFF;stroke:#246E4D;stroke-miterlimit:10;}
	.st25{fill:#246E4D;stroke:#246E4D;stroke-miterlimit:10;}
</style>
<g id="Layer_1">
</g>
<g id="locator_x5F_white">
</g>
<g id="locator_x5F_green">
</g>
<g id="operations_x5F_white">
</g>
<g id="operations_x5F_green">
</g>
<g id="metadata_x5F_white">
</g>
<g id="metadata_x5F_green">
</g>
<g id="create_x5F_white">
</g>
<g id="create_x5F_green">
</g>
<g id="messages_x5F_white">
</g>
<g id="messages_x5F_green">
</g>
<g id="progress_x5F_white">
</g>
<g id="progress_x5F_green">
</g>
<g id="settings_x5F_white">
</g>
<g id="settings_x5F_green">
</g>
<g id="infowehite">
</g>
<g id="info_x5F_green">
</g>
<g id="action_x5F_grey">
</g>
<g id="action_x5F_green">
</g>
<g id="filter_x5F_grey">
</g>
<g id="filter_x5F_green">
</g>
<g id="grid_x5F_grey">
</g>
<g id="grid_x5F_green">
</g>
<g id="list_x5F_grey">
</g>
<g id="l_x3B_ist_x5F_green">
</g>
<g id="spatial_x5F_grey">
</g>
<g id="spatial_x5F_green">
</g>
<g id="thumbs_x5F_grey">
</g>
<g id="thumbs_x5F_green">
</g>
<g id="add_x5F_black">
</g>
<g id="add_x5F_green">
</g>
<g id="delete_x5F_black">
</g>
<g id="delete_x5F_green">
</g>
<g id="refresh_x5F_black">
</g>
<g id="refresh_x5F_green">
</g>
<g id="full_x5F_grey">
</g>
<g id="full_x5F_green">
</g>
<g id="full_x5F_lgiht">
</g>
<g id="pan_x5F_grey">
</g>
<g id="pan_x5F_green">
</g>
<g id="pan_x5F_light">
</g>
<g id="zoomin_x5F_grey">
</g>
<g id="zoomin_x5F_green">
</g>
<g id="zoomin_x5F_light">
</g>
<g id="zoomout_x5F_grey">
</g>
<g id="zoomout_x5F_green">
</g>
<g id="zoomout_x5F_light">
</g>
<g id="pointinfogrey">
</g>
<g id="pointinfo_x5F_green">
</g>
<g id="pointinfo_x5F_light">
	
		<rect x="15.6" y="15.5" transform="matrix(-1.836970e-16 1 -1 -1.836970e-16 36.3914 -9.143703e-02)" class="st17" width="5.4" height="5.4"/>
	
		<rect x="10.3" y="15.5" transform="matrix(-1.836970e-16 1 -1 -1.836970e-16 31.1803 5.1197)" class="st17" width="5.4" height="5.4"/>
	
		<rect x="5.1" y="15.5" transform="matrix(-1.836970e-16 1 -1 -1.836970e-16 25.9692 10.3308)" class="st17" width="5.4" height="5.4"/>
	
		<rect x="-0.1" y="15.5" transform="matrix(-1.836970e-16 1 -1 -1.836970e-16 20.7581 15.5419)" class="st16" width="5.4" height="5.4"/>
	
		<rect x="15.6" y="10.3" transform="matrix(-1.836970e-16 1 -1 -1.836970e-16 31.2248 -5.2581)" class="st17" width="5.4" height="5.4"/>
	
		<rect x="10.3" y="10.3" transform="matrix(-1.836970e-16 1 -1 -1.836970e-16 26.0137 -4.699301e-02)" class="st17" width="5.4" height="5.4"/>
	
		<rect x="5.1" y="10.3" transform="matrix(-1.836970e-16 1 -1 -1.836970e-16 20.8025 5.1641)" class="st16" width="5.4" height="5.4"/>
	
		<rect x="-0.1" y="10.3" transform="matrix(-1.836970e-16 1 -1 -1.836970e-16 15.5914 10.3752)" class="st16" width="5.4" height="5.4"/>
	
		<rect x="15.6" y="5.1" transform="matrix(-1.836970e-16 1 -1 -1.836970e-16 26.0581 -10.4248)" class="st17" width="5.4" height="5.4"/>
	
		<rect x="10.3" y="5.1" transform="matrix(-1.836970e-16 1 -1 -1.836970e-16 20.847 -5.2137)" class="st15" width="5.4" height="5.4"/>
	
		<rect x="5.1" y="5.1" transform="matrix(-1.836970e-16 1 -1 -1.836970e-16 15.6359 -2.548994e-03)" class="st15" width="5.4" height="5.4"/>
	
		<rect x="-0.1" y="5.1" transform="matrix(-1.836970e-16 1 -1 -1.836970e-16 10.4248 5.2086)" class="st16" width="5.4" height="5.4"/>
	
		<rect x="15.6" y="0" transform="matrix(-1.836970e-16 1 -1 -1.836970e-16 20.8914 -15.5914)" class="st15" width="5.4" height="5.4"/>
	
		<rect x="10.3" y="0" transform="matrix(-1.836970e-16 1 -1 -1.836970e-16 15.6803 -10.3803)" class="st15" width="5.4" height="5.4"/>
	
		<rect x="5.1" y="0" transform="matrix(-1.836970e-16 1 -1 -1.836970e-16 10.4692 -5.1692)" class="st15" width="5.4" height="5.4"/>
	
		<rect x="-0.1" y="0" transform="matrix(-1.836970e-16 1 -1 -1.836970e-16 5.2581 4.189502e-02)" class="st16" width="5.4" height="5.4"/>
	<rect x="5" y="-0.1" class="st17" width="1" height="21"/>
	<rect x="-0.1" y="0.2" class="st17" width="1" height="20.8"/>
	<rect x="10" y="-0.1" class="st17" width="1" height="21"/>
	<rect x="15.1" y="-0.1" class="st17" width="1" height="21"/>
	<rect x="20.1" y="-0.1" class="st17" width="1" height="21"/>
	<rect x="10" y="-5.1" transform="matrix(-1.836970e-16 1 -1 -1.836970e-16 15.8298 -5.1128)" class="st17" width="1" height="21"/>
	
		<rect x="10" y="-10.1" transform="matrix(-1.836970e-16 1 -1 -1.836970e-16 10.8506 -10.092)" class="st17" width="1" height="21"/>
	<rect x="10" y="-0.2" transform="matrix(-1.836970e-16 1 -1 -1.836970e-16 20.8089 -0.1336)" class="st17" width="1" height="21"/>
	<rect x="10" y="4.8" transform="matrix(-1.836970e-16 1 -1 -1.836970e-16 25.7881 4.8455)" class="st17" width="1" height="21"/>
	
		<rect x="9.9" y="9.9" transform="matrix(-1.836970e-16 1 -1 -1.836970e-16 30.9131 9.9796)" class="st17" width="1.1" height="21.1"/>
	<rect x="0" y="0" class="st5" width="21" height="21"/>
</g>
</svg>
