<?xml version="1.0" encoding="utf-8"?>
<!-- Generator: Adobe Illustrator 22.0.1, SVG Export Plug-In . SVG Version: 6.00 Build 0)  -->
<svg version="1.1" xmlns="http://www.w3.org/2000/svg" xmlns:xlink="http://www.w3.org/1999/xlink" x="0px" y="0px"
	 viewBox="0 0 21 21" style="enable-background:new 0 0 21 21;" xml:space="preserve">
<style type="text/css">
	.st0{fill:#246E4D;}
	.st1{fill:#707070;}
	.st2{fill:#BDBCBC;}
	.st3{fill:#EAEFEC;}
	.st4{fill:#D7E0D8;}
	.st5{fill:none;}
	.st6{fill:#FFFFFF;}
	.st7{fill:#6F6F6E;}
	.st8{fill:#6F6F6F;}
	.st9{fill:none;stroke:#1D1D1B;stroke-width:0.7087;stroke-miterlimit:10;}
	.st10{fill:#1D1D1B;}
	.st11{fill:none;stroke:#246E4D;stroke-width:0.992;stroke-linecap:round;stroke-linejoin:round;stroke-miterlimit:10;}
	.st12{fill:none;stroke:#246E4D;stroke-width:0.992;stroke-miterlimit:10;}
	.st13{fill:#9EC420;}
	.st14{fill:#6BBE9F;}
	.st15{fill:#D0EBFC;}
	.st16{fill:#5BC5F2;}
	.st17{fill:#006AA9;}
	.st18{fill:#FF0000;}
	.st19{fill:#39B54A;}
	.st20{fill:#FFFF00;}
	.st21{fill:#0000FF;}
	.st22{fill:#EEE758;stroke:#A19F3D;stroke-miterlimit:10;}
	.st23{fill:#246E4D;stroke:#246E4D;stroke-width:1.4173;stroke-linecap:round;stroke-linejoin:round;stroke-miterlimit:10;}
	.st24{fill:#FFFFFF;stroke:#246E4D;stroke-miterlimit:10;}
	.st25{fill:#246E4D;stroke:#246E4D;stroke-miterlimit:10;}
</style>
<g id="Layer_1">
</g>
<g id="locator_x5F_white">
</g>
<g id="locator_x5F_green">
</g>
<g id="operations_x5F_white">
</g>
<g id="operations_x5F_green">
</g>
<g id="metadata_x5F_white">
</g>
<g id="metadata_x5F_green">
</g>
<g id="create_x5F_white">
</g>
<g id="create_x5F_green">
</g>
<g id="messages_x5F_white">
</g>
<g id="messages_x5F_green">
</g>
<g id="progress_x5F_white">
</g>
<g id="progress_x5F_green">
</g>
<g id="settings_x5F_white">
</g>
<g id="settings_x5F_green">
</g>
<g id="infowehite">
</g>
<g id="info_x5F_green">
</g>
<g id="action_x5F_grey">
</g>
<g id="action_x5F_green">
</g>
<g id="filter_x5F_grey">
</g>
<g id="filter_x5F_green">
</g>
<g id="grid_x5F_grey">
</g>
<g id="grid_x5F_green">
</g>
<g id="list_x5F_grey">
</g>
<g id="l_x3B_ist_x5F_green">
</g>
<g id="spatial_x5F_grey">
</g>
<g id="spatial_x5F_green">
</g>
<g id="thumbs_x5F_grey">
</g>
<g id="thumbs_x5F_green">
</g>
<g id="add_x5F_black">
</g>
<g id="add_x5F_green">
</g>
<g id="delete_x5F_black">
</g>
<g id="delete_x5F_green">
</g>
<g id="refresh_x5F_black">
</g>
<g id="refresh_x5F_green">
</g>
<g id="full_x5F_grey">
</g>
<g id="full_x5F_green">
</g>
<g id="full_x5F_lgiht">
</g>
<g id="pan_x5F_grey">
</g>
<g id="pan_x5F_green">
</g>
<g id="pan_x5F_light">
</g>
<g id="zoomin_x5F_grey">
</g>
<g id="zoomin_x5F_green">
</g>
<g id="zoomin_x5F_light">
</g>
<g id="zoomout_x5F_grey">
</g>
<g id="zoomout_x5F_green">
</g>
<g id="zoomout_x5F_light">
</g>
<g id="pointinfogrey">
</g>
<g id="pointinfo_x5F_green">
</g>
<g id="pointinfo_x5F_light">
	<rect x="0.5" y="0.4" class="st11" width="13.2" height="9"/>
	<path class="st11" d="M19.4,20.3h-9c-0.5,0-1-0.4-1-1v-6.7c0-0.6,0.5-1,1-1h9c0.5,0,1,0.4,1,1v6.7C20.4,19.9,19.9,20.3,19.4,20.3z"
		/>
	<g>
		<g>
			<polyline class="st12" points="1.4,9.3 1.4,16.6 3.6,16.6 			"/>
			<g>
				<polygon class="st0" points="2.6,20 8.6,16.6 2.6,13.1 				"/>
			</g>
		</g>
	</g>
	<g>
		<path class="st0" d="M4.4,7.7l2.1-5.5h0.8l2.3,5.5H8.8L8.1,6H5.8L5.2,7.7H4.4z M6,5.4h1.9L7.3,3.9C7.1,3.4,7,3.1,6.9,2.8
			C6.8,3.1,6.7,3.5,6.6,3.8L6,5.4z"/>
	</g>
	<g>
		<path class="st0" d="M13.1,18.7v-5.5h2.1c0.4,0,0.8,0.1,1,0.2c0.3,0.1,0.5,0.3,0.6,0.5c0.1,0.2,0.2,0.5,0.2,0.7
			c0,0.2-0.1,0.5-0.2,0.7c-0.1,0.2-0.3,0.4-0.6,0.5c0.3,0.1,0.6,0.3,0.8,0.5c0.2,0.2,0.3,0.5,0.3,0.8c0,0.3-0.1,0.5-0.2,0.7
			c-0.1,0.2-0.2,0.4-0.4,0.5c-0.2,0.1-0.4,0.2-0.6,0.3c-0.2,0.1-0.5,0.1-0.9,0.1H13.1z M13.8,15.5H15c0.3,0,0.6,0,0.7-0.1
			c0.2-0.1,0.3-0.1,0.4-0.3c0.1-0.1,0.1-0.3,0.1-0.5c0-0.2,0-0.3-0.1-0.5c-0.1-0.1-0.2-0.2-0.4-0.3c-0.2-0.1-0.4-0.1-0.8-0.1h-1.1
			V15.5z M13.8,18.1h1.4c0.2,0,0.4,0,0.5,0c0.2,0,0.3-0.1,0.4-0.2c0.1-0.1,0.2-0.2,0.3-0.3c0.1-0.1,0.1-0.3,0.1-0.5
			c0-0.2-0.1-0.4-0.2-0.5c-0.1-0.2-0.3-0.3-0.4-0.3c-0.2-0.1-0.5-0.1-0.8-0.1h-1.3V18.1z"/>
	</g>
	<rect x="0" y="0" class="st5" width="21" height="21"/>
</g>
</svg>
