<?xml version="1.0" encoding="utf-8"?>
<!-- Generator: Adobe Illustrator 22.0.1, SVG Export Plug-In . SVG Version: 6.00 Build 0)  -->
<svg version="1.1" xmlns="http://www.w3.org/2000/svg" xmlns:xlink="http://www.w3.org/1999/xlink" x="0px" y="0px"
	 viewBox="0 0 21 21" style="enable-background:new 0 0 21 21;" xml:space="preserve">
<style type="text/css">
	.st0{fill:#246E4D;}
	.st1{fill:#707070;}
	.st2{fill:#BDBCBC;}
	.st3{fill:#EAEFEC;}
	.st4{fill:#D7E0D8;}
	.st5{fill:none;}
	.st6{fill:#FFFFFF;}
	.st7{fill:#6F6F6E;}
	.st8{fill:#6F6F6F;}
	.st9{fill:none;stroke:#1D1D1B;stroke-width:0.7087;stroke-miterlimit:10;}
	.st10{fill:#1D1D1B;}
	.st11{fill:none;stroke:#246E4D;stroke-width:0.992;stroke-linecap:round;stroke-linejoin:round;stroke-miterlimit:10;}
	.st12{fill:none;stroke:#246E4D;stroke-width:0.992;stroke-miterlimit:10;}
	.st13{fill:#9EC420;}
	.st14{fill:#6BBE9F;}
	.st15{fill:#D0EBFC;}
	.st16{fill:#5BC5F2;}
	.st17{fill:#006AA9;}
	.st18{fill:#FF0000;}
	.st19{fill:#39B54A;}
	.st20{fill:#FFFF00;}
	.st21{fill:#0000FF;}
	.st22{fill:#EEE758;stroke:#A19F3D;stroke-miterlimit:10;}
	.st23{fill:#246E4D;stroke:#246E4D;stroke-width:1.4173;stroke-linecap:round;stroke-linejoin:round;stroke-miterlimit:10;}
	.st24{fill:#FFFFFF;stroke:#246E4D;stroke-miterlimit:10;}
	.st25{fill:#246E4D;stroke:#246E4D;stroke-miterlimit:10;}
</style>
<g id="Layer_1">
</g>
<g id="locator_x5F_white">
</g>
<g id="locator_x5F_green">
</g>
<g id="operations_x5F_white">
</g>
<g id="operations_x5F_green">
</g>
<g id="metadata_x5F_white">
</g>
<g id="metadata_x5F_green">
</g>
<g id="create_x5F_white">
</g>
<g id="create_x5F_green">
</g>
<g id="messages_x5F_white">
</g>
<g id="messages_x5F_green">
</g>
<g id="progress_x5F_white">
</g>
<g id="progress_x5F_green">
</g>
<g id="settings_x5F_white">
</g>
<g id="settings_x5F_green">
</g>
<g id="infowehite">
</g>
<g id="info_x5F_green">
</g>
<g id="action_x5F_grey">
</g>
<g id="action_x5F_green">
</g>
<g id="filter_x5F_grey">
</g>
<g id="filter_x5F_green">
</g>
<g id="grid_x5F_grey">
</g>
<g id="grid_x5F_green">
</g>
<g id="list_x5F_grey">
</g>
<g id="l_x3B_ist_x5F_green">
</g>
<g id="spatial_x5F_grey">
</g>
<g id="spatial_x5F_green">
</g>
<g id="thumbs_x5F_grey">
</g>
<g id="thumbs_x5F_green">
</g>
<g id="add_x5F_black">
</g>
<g id="add_x5F_green">
</g>
<g id="delete_x5F_black">
</g>
<g id="delete_x5F_green">
</g>
<g id="refresh_x5F_black">
</g>
<g id="refresh_x5F_green">
</g>
<g id="full_x5F_grey">
</g>
<g id="full_x5F_green">
</g>
<g id="full_x5F_lgiht">
</g>
<g id="pan_x5F_grey">
</g>
<g id="pan_x5F_green">
</g>
<g id="pan_x5F_light">
</g>
<g id="zoomin_x5F_grey">
</g>
<g id="zoomin_x5F_green">
</g>
<g id="zoomin_x5F_light">
</g>
<g id="zoomout_x5F_grey">
</g>
<g id="zoomout_x5F_green">
</g>
<g id="zoomout_x5F_light">
</g>
<g id="pointinfogrey">
</g>
<g id="pointinfo_x5F_green">
</g>
<g id="pointinfo_x5F_light">
	<path class="st0" d="M10.5,1C5.2,1,1,5.3,1,10.5S5.2,20,10.5,20c5.2,0,9.5-4.3,9.5-9.5S15.7,1,10.5,1z M18.5,9.5H16
		c-0.2-2.6-0.9-4.8-2-6.3C16.4,4.4,18.1,6.7,18.5,9.5z M9.5,2.7v6.8H6.1C6.3,6.2,7.7,3.4,9.5,2.7z M9.5,11v7.4
		C7.6,17.7,6.1,14.6,6,11H9.5z M10.9,18.4V11h3.6C14.5,14.7,12.9,17.8,10.9,18.4z M10.9,9.5V2.7c1.9,0.5,3.4,3.4,3.6,6.8H10.9z
		 M6.5,3.5c-1,1.5-1.7,3.6-1.9,6H2.5C2.8,6.9,4.3,4.7,6.5,3.5z M2.4,11h2.2c0.1,2.6,0.7,4.8,1.8,6.5C4.1,16.1,2.6,13.7,2.4,11z
		 M14,17.7c1.2-1.6,1.9-4,2-6.7h2.5C18.3,13.9,16.6,16.5,14,17.7z"/>
	<rect x="0" y="0" class="st5" width="21" height="21"/>
</g>
</svg>
