<?xml version="1.0" encoding="utf-8"?>
<!-- Generator: Adobe Illustrator 22.0.1, SVG Export Plug-In . SVG Version: 6.00 Build 0)  -->
<svg version="1.1" xmlns="http://www.w3.org/2000/svg" xmlns:xlink="http://www.w3.org/1999/xlink" x="0px" y="0px"
	 viewBox="0 0 21 21" style="enable-background:new 0 0 21 21;" xml:space="preserve">
<style type="text/css">
	.st0{fill:#246E4D;}
	.st1{fill:#707070;}
	.st2{fill:#BDBCBC;}
	.st3{fill:#EAEFEC;}
	.st4{fill:#D7E0D8;}
	.st5{fill:none;}
	.st6{fill:#FFFFFF;}
	.st7{fill:#6F6F6E;}
	.st8{fill:#6BBE9F;}
	.st9{fill:#6F6F6F;}
	.st10{fill:none;stroke:#1D1D1B;stroke-width:0.7087;stroke-miterlimit:10;}
	.st11{fill:#1D1D1B;}
	.st12{fill:#B8CEBD;}
	.st13{fill:none;stroke:#246E4D;stroke-width:0.992;stroke-linecap:round;stroke-linejoin:round;stroke-miterlimit:10;}
	.st14{fill:none;stroke:#246E4D;stroke-width:0.992;stroke-miterlimit:10;}
	.st15{fill:#9EC420;}
	.st16{fill:#006AA9;}
	.st17{fill:#5BC5F2;}
	.st18{fill:#D0EBFC;}
	.st19{fill:#FF0000;}
	.st20{fill:#39B54A;}
	.st21{fill:#FFFF00;}
	.st22{fill:#0000FF;}
	.st23{fill:#EEE758;stroke:#A19F3D;stroke-miterlimit:10;}
	.st24{fill:#246E4D;stroke:#246E4D;stroke-width:1.4173;stroke-linecap:round;stroke-linejoin:round;stroke-miterlimit:10;}
	.st25{fill:#FFFFFF;stroke:#246E4D;stroke-miterlimit:10;}
	.st26{fill:#246E4D;stroke:#246E4D;stroke-miterlimit:10;}
	.st27{fill:#ECECEC;}
	.st28{fill:#979797;}
</style>
<g id="Layer_1">
</g>
<g id="locator_x5F_white">
</g>
<g id="locator_x5F_green">
</g>
<g id="operations_x5F_white">
</g>
<g id="operations_x5F_green">
</g>
<g id="metadata_x5F_white">
</g>
<g id="metadata_x5F_green">
</g>
<g id="create_x5F_white">
</g>
<g id="create_x5F_green">
</g>
<g id="messages_x5F_white">
</g>
<g id="messages_x5F_green">
</g>
<g id="progress_x5F_white">
</g>
<g id="progress_x5F_green">
</g>
<g id="settings_x5F_white">
</g>
<g id="settings_x5F_green">
</g>
<g id="infowehite">
</g>
<g id="info_x5F_green">
	<rect x="0" y="0" class="st8" width="21" height="21"/>
</g>
<g id="action_x5F_grey">
</g>
<g id="action_x5F_green">
</g>
<g id="filter_x5F_grey">
</g>
<g id="filter_x5F_green">
</g>
<g id="grid_x5F_grey">
</g>
<g id="grid_x5F_green">
</g>
<g id="list_x5F_grey">
</g>
<g id="l_x3B_ist_x5F_green">
</g>
<g id="spatial_x5F_grey">
</g>
<g id="spatial_x5F_green">
</g>
<g id="thumbs_x5F_grey">
</g>
<g id="thumbs_x5F_green">
</g>
<g id="add_x5F_black">
</g>
<g id="add_x5F_green">
</g>
<g id="delete_x5F_black">
</g>
<g id="delete_x5F_green">
</g>
<g id="refresh_x5F_black">
</g>
<g id="refresh_x5F_green">
</g>
<g id="full_x5F_grey">
</g>
<g id="full_x5F_green">
</g>
<g id="full_x5F_lgiht">
</g>
<g id="pan_x5F_grey">
</g>
<g id="pan_x5F_green">
</g>
<g id="pan_x5F_light">
</g>
<g id="zoomin_x5F_grey">
</g>
<g id="zoomin_x5F_green">
</g>
<g id="zoomin_x5F_light">
</g>
<g id="zoomout_x5F_grey">
</g>
<g id="zoomout_x5F_green">
</g>
<g id="zoomout_x5F_light">
</g>
<g id="pointinfogrey">
</g>
<g id="pointinfo_x5F_green">
</g>
<g id="pointinfo_x5F_light">
	<g>
		<path class="st6" d="M10.6,6.4V9H8.3v5c0,1,0,1.6,0.1,1.8c0,0.2,0.1,0.3,0.3,0.4s0.3,0.2,0.6,0.2c0.3,0,0.7-0.1,1.3-0.3l0.3,2.5
			C10.1,18.9,9.2,19,8.2,19c-0.6,0-1.1-0.1-1.6-0.3c-0.5-0.2-0.8-0.5-1-0.8c-0.2-0.3-0.4-0.7-0.5-1.3C5.1,16.3,5,15.6,5,14.4V9H3.5
			V6.4H5V4L8.3,2v4.4H10.6z"/>
		<g>
			<path class="st6" d="M17.1,5.3v1.9h-1.7V11c0,0.8,0,1.2,0,1.3c0,0.1,0.1,0.2,0.2,0.3c0.1,0.1,0.3,0.1,0.4,0.1
				c0.2,0,0.6-0.1,1-0.2l0.2,1.9c-0.6,0.2-1.2,0.4-1.9,0.4c-0.4,0-0.8-0.1-1.2-0.2c-0.4-0.1-0.6-0.3-0.8-0.6c-0.2-0.2-0.3-0.6-0.3-1
				C13,12.7,13,12.2,13,11.3v-4h-1.1V5.3H13V3.5L15.4,2v3.3H17.1z"/>
		</g>
	</g>
</g>
</svg>
