<?xml version="1.0" encoding="utf-8"?>
<!-- Generator: Adobe Illustrator 22.0.1, SVG Export Plug-In . SVG Version: 6.00 Build 0)  -->
<svg version="1.1" xmlns="http://www.w3.org/2000/svg" xmlns:xlink="http://www.w3.org/1999/xlink" x="0px" y="0px"
	 viewBox="0 0 36 36" style="enable-background:new 0 0 36 36;" xml:space="preserve">
<style type="text/css">
	.st0{display:none;}
	.st1{display:inline;fill:#246E4D;}
	.st2{display:inline;fill:#707070;}
	.st3{display:inline;fill:#BDBCBC;}
	.st4{display:inline;fill:#EAEFEC;}
	.st5{display:inline;fill:#D7E0D8;}
	.st6{fill:none;}
	.st7{fill:#FFFFFF;}
	.st8{fill:#246E4D;}
	.st9{fill:#6F6F6F;}
	.st10{fill:#6F6F6E;}
	.st11{fill:none;stroke:#1D1D1B;stroke-width:0.7087;stroke-miterlimit:10;}
	.st12{fill:#EAEFEC;}
	.st13{fill:#1D1D1B;}
	.st14{fill:#D7E0D8;}
	.st15{fill:#BDBCBC;}
</style>
<g id="Layer_1" class="st0">
</g>
<g id="locator_x5F_white">
</g>
<g id="locator_x5F_green">
</g>
<g id="operations_x5F_white">
	<rect x="0" y="0" class="st6" width="36" height="36"/>
	<g>
		<g>
			<ellipse class="st7" cx="12.4" cy="12.3" rx="2" ry="2"/>
			<path class="st7" d="M23,16.3L23,16.3l-2.7-1.8c0.1-0.3,0.2-0.6,0.2-1c0-0.3,0.1-0.7,0.1-1l3.1-0.9l0,0c0.1,0,0.1-0.1,0.1-0.2
				l0,0c0-0.3-0.1-0.7-0.1-1c-0.1-0.3-0.1-0.7-0.2-1c0,0,0,0,0,0l0,0c0-0.1-0.1-0.1-0.2-0.1l0,0l-3.2,0.2c-0.2-0.6-0.5-1.2-0.9-1.8
				l2-2.5l0,0c0.1-0.1,0.1-0.2,0-0.2l0,0c-0.2-0.3-0.5-0.5-0.7-0.8c-0.2-0.2-0.5-0.5-0.8-0.7c0,0,0,0,0,0l0,0
				c-0.1-0.1-0.2-0.1-0.2,0l0,0l-2.5,2c-0.5-0.4-1.1-0.7-1.8-0.9l0.1-3.2l0,0c0-0.1,0-0.2-0.1-0.2l0,0c-0.3-0.1-0.7-0.1-1-0.2
				C13.7,1,13.4,1,13,0.9c0,0,0,0,0,0l0,0c-0.1,0-0.2,0.1-0.2,0.1l0,0L12,4.2c-0.7,0-1.3,0.1-2,0.3L8.3,1.9l0,0
				c0-0.1-0.1-0.1-0.2-0.1l0,0C7.7,1.9,7.4,2.1,7.1,2.2C6.8,2.4,6.5,2.6,6.2,2.7c0,0,0,0,0,0l0,0C6.1,2.8,6.1,2.9,6.1,3l0,0l1.2,3
				c-0.5,0.4-1,0.9-1.4,1.4l-3-1.1l0,0c-0.1,0-0.2,0-0.2,0.1l0,0C2.5,6.7,2.3,7,2.1,7.3C2,7.6,1.9,7.9,1.7,8.2c0,0,0,0,0,0l0,0
				c0,0.1,0,0.2,0.1,0.2l0,0l2.7,1.7c-0.1,0.3-0.2,0.6-0.2,1c0,0.3-0.1,0.7-0.1,1L1.1,13l0,0C1,13.1,1,13.1,1,13.2l0,0
				c0,0.3,0.1,0.7,0.1,1c0.1,0.3,0.1,0.7,0.2,1c0,0,0,0,0,0l0,0c0,0.1,0.1,0.1,0.2,0.1l0,0l3.2-0.2C5,15.9,5.3,16.4,5.7,17l-2,2.5
				l0,0c-0.1,0.1-0.1,0.2,0,0.2l0,0c0.2,0.3,0.5,0.5,0.7,0.8c0.2,0.2,0.5,0.5,0.8,0.7c0,0,0,0,0,0l0,0c0.1,0.1,0.2,0.1,0.2,0l0,0
				l2.5-2c0.5,0.4,1.1,0.7,1.8,0.9l-0.1,3.2l0,0c0,0.1,0,0.2,0.1,0.2l0,0c0.3,0.1,0.7,0.1,1,0.2c0.3,0.1,0.7,0.1,1,0.1c0,0,0,0,0,0
				l0,0c0.1,0,0.2-0.1,0.2-0.1l0,0l0.8-3.1c0.7,0,1.3-0.1,1.9-0.3l1.8,2.7l0,0c0,0.1,0.1,0.1,0.2,0.1l0,0c0.3-0.1,0.6-0.3,0.9-0.4
				c0.3-0.2,0.6-0.3,0.9-0.5c0,0,0,0,0,0l0,0c0.1,0,0.1-0.1,0.1-0.2l0,0l-1.2-3c0.5-0.4,1-0.9,1.4-1.4l3,1.1l0,0
				c0.1,0,0.2,0,0.2-0.1l0,0c0.2-0.3,0.3-0.6,0.5-0.9c0.2-0.3,0.3-0.6,0.4-0.9c0,0,0,0,0,0l0,0C23.1,16.4,23.1,16.3,23,16.3z
				 M11.8,16.4C9.5,16.1,8,14,8.3,11.7c0.3-2.3,2.4-3.8,4.7-3.5c2.3,0.3,3.8,2.4,3.5,4.7C16.2,15.2,14.1,16.8,11.8,16.4z"/>
		</g>
		<g>
			<circle class="st7" cx="25.9" cy="25.8" r="1.5"/>
			<path class="st7" d="M34.9,24.8C34.9,24.8,34.9,24.8,34.9,24.8L34.9,24.8c0-0.1-0.1-0.2-0.2-0.2l0,0l-3.1-0.4
				c-0.1-0.5-0.3-1-0.6-1.4l2-2.5l0,0c0.1-0.1,0.1-0.2,0-0.2l0,0c-0.2-0.3-0.5-0.5-0.7-0.8c-0.2-0.2-0.5-0.5-0.8-0.7c0,0,0,0,0,0
				l0,0c-0.1-0.1-0.2-0.1-0.2,0l0,0l-2.5,2c-0.4-0.2-0.9-0.4-1.4-0.6l-0.4-3.2l0,0c0-0.1-0.1-0.2-0.2-0.2l0,0c-0.3,0-0.7,0-1,0
				c-0.3,0-0.7,0-1,0c0,0,0,0,0,0l0,0c-0.1,0-0.2,0.1-0.2,0.2l0,0l-0.4,3.2c-0.5,0.1-1,0.3-1.4,0.6l-2.5-2l0,0
				c-0.1-0.1-0.2-0.1-0.2,0l0,0c-0.3,0.2-0.5,0.4-0.8,0.7c-0.2,0.2-0.5,0.5-0.7,0.8c0,0,0,0,0,0l0,0c-0.1,0.1-0.1,0.2,0,0.2l0,0
				l2,2.5c-0.3,0.4-0.5,0.9-0.6,1.4l-3.2,0.4l0,0c-0.1,0-0.2,0.1-0.2,0.2l0,0c0,0.3,0,0.7,0,1c0,0.3,0,0.7,0,1c0,0,0,0,0,0l0,0
				c0,0.1,0.1,0.2,0.2,0.2l0,0l3.1,0.4c0.1,0.5,0.3,1,0.6,1.4l-2,2.4l0,0c-0.1,0.1-0.1,0.2,0,0.2l0,0c0.2,0.3,0.5,0.5,0.7,0.8
				c0.2,0.2,0.5,0.5,0.8,0.7c0,0,0,0,0,0l0,0c0.1,0.1,0.2,0.1,0.2,0l0,0l2.5-1.9c0.5,0.3,0.9,0.5,1.5,0.6l0.3,3.1l0,0
				c0,0.1,0.1,0.2,0.2,0.2l0,0c0.3,0,0.7,0,1,0c0.3,0,0.7,0,1,0c0,0,0,0,0,0l0,0c0.1,0,0.2-0.1,0.2-0.2l0,0l0.4-3.1
				c0.5-0.1,1-0.3,1.5-0.6l2.4,1.9l0,0c0.1,0.1,0.2,0.1,0.2,0l0,0c0.3-0.2,0.5-0.4,0.8-0.7c0.2-0.2,0.5-0.5,0.7-0.8c0,0,0,0,0,0l0,0
				c0.1-0.1,0.1-0.2,0-0.2l0,0l-1.9-2.5c0.3-0.4,0.5-0.9,0.6-1.4l3.1-0.3l0,0c0.1,0,0.2-0.1,0.2-0.2l0,0c0-0.3,0-0.7,0-1
				C35,25.5,35,25.1,34.9,24.8z M25.9,28.9c-1.7,0-3-1.4-3-3c0-1.7,1.4-3,3-3c1.7,0,3,1.4,3,3C28.9,27.5,27.5,28.9,25.9,28.9z"/>
		</g>
	</g>
</g>
<g id="operations_x5F_green">
</g>
<g id="metadata_x5F_white">
</g>
<g id="metadata_x5F_green">
</g>
<g id="create_x5F_white">
</g>
<g id="create_x5F_green">
</g>
<g id="messages_x5F_white">
</g>
<g id="messages_x5F_green">
</g>
<g id="progress_x5F_white">
</g>
<g id="progress_x5F_green">
</g>
<g id="settings_x5F_white">
</g>
<g id="settings_x5F_green">
</g>
<g id="infowehite">
</g>
<g id="info_x5F_green">
</g>
<g id="action_x5F_grey">
</g>
<g id="action_x5F_green">
</g>
<g id="filter_x5F_grey">
</g>
<g id="filter_x5F_green">
</g>
<g id="grid_x5F_grey">
</g>
<g id="grid_x5F_green">
</g>
<g id="list_x5F_grey">
</g>
<g id="l_x3B_ist_x5F_green">
</g>
<g id="spatial_x5F_grey">
</g>
<g id="spatial_x5F_green">
</g>
<g id="thumbs_x5F_grey">
</g>
<g id="thumbs_x5F_green">
</g>
<g id="add_x5F_black">
</g>
<g id="add_x5F_green">
</g>
<g id="delete_x5F_black">
</g>
<g id="delete_x5F_green">
</g>
<g id="refresh_x5F_black">
</g>
<g id="refresh_x5F_green">
</g>
<g id="full_x5F_grey">
</g>
<g id="full_x5F_green">
</g>
<g id="full_x5F_lgiht">
</g>
<g id="pan_x5F_grey">
</g>
<g id="pan_x5F_green">
</g>
<g id="pan_x5F_light">
</g>
<g id="zoomin_x5F_grey">
</g>
<g id="zoomin_x5F_green">
</g>
<g id="zoomin_x5F_light">
</g>
<g id="zoomout_x5F_grey">
</g>
<g id="zoomout_x5F_green">
</g>
<g id="zoomout_x5F_light">
</g>
<g id="pointinfogrey">
</g>
<g id="pointinfo_x5F_green">
</g>
<g id="pointinfo_x5F_light">
</g>
</svg>
