<?xml version="1.0" encoding="utf-8"?>
<!-- Generator: Adobe Illustrator 22.0.1, SVG Export Plug-In . SVG Version: 6.00 Build 0)  -->
<svg version="1.1" xmlns="http://www.w3.org/2000/svg" xmlns:xlink="http://www.w3.org/1999/xlink" x="0px" y="0px"
	 viewBox="0 0 36 36" style="enable-background:new 0 0 36 36;" xml:space="preserve">
<style type="text/css">
	.st0{fill:#246E4D;}
	.st1{fill:#707070;}
	.st2{fill:#BDBCBC;}
	.st3{fill:#EAEFEC;}
	.st4{fill:#D7E0D8;}
	.st5{fill:none;}
	.st6{fill:#FFFFFF;}
	.st7{fill:#6F6F6E;}
	.st8{fill:#6F6F6F;}
	.st9{fill:none;stroke:#1D1D1B;stroke-width:0.7087;stroke-miterlimit:10;}
	.st10{fill:#1D1D1B;}
	.st11{fill:none;stroke:#246E4D;stroke-width:0.992;stroke-linecap:round;stroke-linejoin:round;stroke-miterlimit:10;}
	.st12{fill:none;stroke:#246E4D;stroke-width:0.992;stroke-miterlimit:10;}
	.st13{fill:#9EC420;}
	.st14{fill:#6BBE9F;}
	.st15{fill:#D0EBFC;}
	.st16{fill:#5BC5F2;}
	.st17{fill:#006AA9;}
	.st18{fill:#FF0000;}
	.st19{fill:#39B54A;}
	.st20{fill:#FFFF00;}
	.st21{fill:#0000FF;}
	.st22{fill:#EEE758;stroke:#A19F3D;stroke-miterlimit:10;}
	.st23{fill:#246E4D;stroke:#246E4D;stroke-width:1.4173;stroke-linecap:round;stroke-linejoin:round;stroke-miterlimit:10;}
	.st24{fill:#FFFFFF;stroke:#246E4D;stroke-miterlimit:10;}
	.st25{fill:#246E4D;stroke:#246E4D;stroke-miterlimit:10;}
</style>
<g id="Layer_1">
</g>
<g id="locator_x5F_white">
</g>
<g id="locator_x5F_green">
</g>
<g id="operations_x5F_white">
</g>
<g id="operations_x5F_green">
	<rect x="0.1" y="-0.1" class="st0" width="36" height="36"/>
	<g>
		<g>
			<ellipse class="st6" cx="13" cy="12.8" rx="1.9" ry="1.9"/>
			<path class="st6" d="M22.6,16.4L22.6,16.4l-2.5-1.6c0.1-0.3,0.1-0.6,0.2-0.9c0-0.3,0.1-0.6,0.1-0.9l2.8-0.8l0,0
				c0.1,0,0.1-0.1,0.1-0.2l0,0c0-0.3-0.1-0.6-0.1-0.9c-0.1-0.3-0.1-0.6-0.2-0.9c0,0,0,0,0,0l0,0c0-0.1-0.1-0.1-0.2-0.1l0,0L20,10.2
				c-0.2-0.6-0.5-1.1-0.8-1.6l1.8-2.3l0,0c0-0.1,0-0.1,0-0.2l0,0c-0.2-0.2-0.4-0.5-0.6-0.7C20,5.2,19.8,5,19.6,4.8c0,0,0,0,0,0l0,0
				c-0.1,0-0.1,0-0.2,0l0,0l-2.3,1.9c-0.5-0.3-1-0.6-1.6-0.8l0.1-2.9l0,0c0-0.1,0-0.1-0.1-0.2l0,0c-0.3-0.1-0.6-0.1-0.9-0.2
				c-0.3,0-0.6-0.1-0.9-0.1c0,0,0,0,0,0l0,0c-0.1,0-0.1,0-0.2,0.1l0,0l-0.8,2.8c-0.6,0-1.2,0.1-1.8,0.3L9.2,3.3l0,0
				c0-0.1-0.1-0.1-0.2-0.1l0,0C8.7,3.3,8.4,3.5,8.1,3.6C7.9,3.8,7.6,3.9,7.3,4.1c0,0,0,0,0,0l0,0c-0.1,0-0.1,0.1-0.1,0.2l0,0L8.3,7
				C7.8,7.4,7.4,7.8,7.1,8.3l-2.8-1l0,0c-0.1,0-0.2,0-0.2,0.1l0,0C3.9,7.7,3.8,7.9,3.6,8.2C3.5,8.5,3.4,8.8,3.2,9.1c0,0,0,0,0,0l0,0
				c0,0.1,0,0.2,0.1,0.2l0,0l2.5,1.6c-0.1,0.3-0.1,0.6-0.2,0.9c0,0.3-0.1,0.6-0.1,0.9l-2.8,0.8l0,0c-0.1,0-0.1,0.1-0.1,0.2l0,0
				c0,0.3,0.1,0.6,0.1,0.9c0.1,0.3,0.1,0.6,0.2,0.9c0,0,0,0,0,0l0,0c0,0.1,0.1,0.1,0.2,0.1l0,0L6,15.5c0.2,0.6,0.5,1.1,0.8,1.6
				L5,19.4l0,0c0,0.1,0,0.1,0,0.2l0,0c0.2,0.2,0.4,0.5,0.6,0.7c0.2,0.2,0.5,0.4,0.7,0.6c0,0,0,0,0,0l0,0c0.1,0,0.1,0,0.2,0l0,0
				l2.3-1.9c0.5,0.3,1,0.6,1.6,0.8l-0.1,2.9l0,0c0,0.1,0,0.1,0.1,0.2l0,0c0.3,0.1,0.6,0.1,0.9,0.2c0.3,0,0.6,0.1,0.9,0.1
				c0,0,0,0,0,0l0,0c0.1,0,0.1,0,0.2-0.1l0,0l0.8-2.8c0.6,0,1.2-0.1,1.8-0.3l1.6,2.4l0,0c0,0.1,0.1,0.1,0.2,0.1l0,0
				c0.3-0.1,0.6-0.3,0.9-0.4c0.3-0.1,0.6-0.3,0.8-0.5c0,0,0,0,0,0l0,0c0.1,0,0.1-0.1,0.1-0.2l0,0l-1.1-2.7c0.5-0.4,0.9-0.8,1.3-1.3
				l2.8,1l0,0c0.1,0,0.2,0,0.2-0.1l0,0c0.2-0.3,0.3-0.5,0.5-0.8c0.1-0.3,0.3-0.6,0.4-0.9c0,0,0,0,0,0l0,0
				C22.7,16.5,22.7,16.4,22.6,16.4z M12.4,16.6c-2.1-0.3-3.5-2.2-3.2-4.3c0.3-2.1,2.2-3.5,4.3-3.2c2.1,0.3,3.5,2.2,3.2,4.3
				C16.4,15.5,14.5,16.9,12.4,16.6z"/>
		</g>
		<g>
			<circle class="st6" cx="25.2" cy="25.1" r="1.4"/>
			<path class="st6" d="M33.5,24.2C33.5,24.2,33.5,24.2,33.5,24.2L33.5,24.2c0-0.1-0.1-0.1-0.1-0.2l0,0l-2.9-0.3
				c-0.1-0.5-0.3-0.9-0.5-1.3l1.8-2.3l0,0c0.1-0.1,0.1-0.1,0-0.2l0,0c-0.2-0.2-0.4-0.5-0.6-0.7c-0.2-0.2-0.5-0.4-0.7-0.6
				c0,0,0,0,0,0l0,0c-0.1,0-0.1,0-0.2,0l0,0l-2.3,1.8c-0.4-0.2-0.8-0.4-1.3-0.5L26.4,17l0,0c0-0.1-0.1-0.1-0.1-0.1l0,0
				c-0.3,0-0.6,0-0.9,0c-0.3,0-0.6,0-0.9,0c0,0,0,0,0,0l0,0c-0.1,0-0.1,0.1-0.1,0.1l0,0l-0.3,2.9c-0.4,0.1-0.9,0.3-1.3,0.5l-2.3-1.8
				l0,0c-0.1-0.1-0.1-0.1-0.2,0l0,0c-0.2,0.2-0.5,0.4-0.7,0.6c-0.2,0.2-0.4,0.5-0.6,0.7c0,0,0,0,0,0l0,0c0,0.1,0,0.1,0,0.2l0,0
				l1.8,2.3c-0.2,0.4-0.4,0.8-0.5,1.3L17.1,24l0,0c-0.1,0-0.1,0.1-0.1,0.1l0,0c0,0.3,0,0.6,0,0.9c0,0.3,0,0.6,0,0.9c0,0,0,0,0,0l0,0
				c0,0.1,0.1,0.1,0.1,0.1l0,0l2.9,0.3c0.1,0.5,0.3,0.9,0.5,1.3l-1.8,2.2l0,0c-0.1,0.1-0.1,0.1,0,0.2l0,0c0.2,0.2,0.4,0.5,0.6,0.7
				c0.2,0.2,0.5,0.4,0.7,0.6c0,0,0,0,0,0l0,0c0.1,0,0.1,0,0.2,0l0,0l2.2-1.8c0.4,0.2,0.9,0.4,1.3,0.6l0.3,2.8l0,0
				c0,0.1,0.1,0.1,0.1,0.1l0,0c0.3,0,0.6,0,0.9,0c0.3,0,0.6,0,0.9,0c0,0,0,0,0,0l0,0c0.1,0,0.1-0.1,0.1-0.1l0,0l0.3-2.8
				c0.5-0.1,0.9-0.3,1.3-0.6l2.2,1.8l0,0c0.1,0.1,0.1,0.1,0.2,0l0,0c0.2-0.2,0.5-0.4,0.7-0.6c0.2-0.2,0.4-0.5,0.6-0.7c0,0,0,0,0,0
				l0,0c0-0.1,0-0.1,0-0.2l0,0L30,27.9c0.2-0.4,0.4-0.9,0.5-1.3l2.8-0.3l0,0c0.1,0,0.1-0.1,0.1-0.1l0,0c0-0.3,0-0.6,0-0.9
				C33.6,24.8,33.6,24.5,33.5,24.2z M25.2,27.9c-1.5,0-2.8-1.2-2.8-2.8c0-1.5,1.2-2.8,2.8-2.8c1.5,0,2.8,1.2,2.8,2.8
				C28,26.7,26.8,27.9,25.2,27.9z"/>
		</g>
	</g>
</g>
<g id="metadata_x5F_white">
</g>
<g id="metadata_x5F_green">
</g>
<g id="create_x5F_white">
</g>
<g id="create_x5F_green">
</g>
<g id="messages_x5F_white">
</g>
<g id="messages_x5F_green">
</g>
<g id="progress_x5F_white">
</g>
<g id="progress_x5F_green">
</g>
<g id="settings_x5F_white">
</g>
<g id="settings_x5F_green">
</g>
<g id="infowehite">
</g>
<g id="info_x5F_green">
</g>
<g id="action_x5F_grey">
</g>
<g id="action_x5F_green">
</g>
<g id="filter_x5F_grey">
</g>
<g id="filter_x5F_green">
</g>
<g id="grid_x5F_grey">
</g>
<g id="grid_x5F_green">
</g>
<g id="list_x5F_grey">
</g>
<g id="l_x3B_ist_x5F_green">
</g>
<g id="spatial_x5F_grey">
</g>
<g id="spatial_x5F_green">
</g>
<g id="thumbs_x5F_grey">
</g>
<g id="thumbs_x5F_green">
</g>
<g id="add_x5F_black">
</g>
<g id="add_x5F_green">
</g>
<g id="delete_x5F_black">
</g>
<g id="delete_x5F_green">
</g>
<g id="refresh_x5F_black">
</g>
<g id="refresh_x5F_green">
</g>
<g id="full_x5F_grey">
</g>
<g id="full_x5F_green">
</g>
<g id="full_x5F_lgiht">
</g>
<g id="pan_x5F_grey">
</g>
<g id="pan_x5F_green">
</g>
<g id="pan_x5F_light">
</g>
<g id="zoomin_x5F_grey">
</g>
<g id="zoomin_x5F_green">
</g>
<g id="zoomin_x5F_light">
</g>
<g id="zoomout_x5F_grey">
</g>
<g id="zoomout_x5F_green">
</g>
<g id="zoomout_x5F_light">
</g>
<g id="pointinfogrey">
</g>
<g id="pointinfo_x5F_green">
</g>
<g id="pointinfo_x5F_light">
</g>
</svg>
