<?xml version="1.0" encoding="utf-8"?>
<!-- Generator: Adobe Illustrator 22.0.1, SVG Export Plug-In . SVG Version: 6.00 Build 0)  -->
<svg version="1.1" xmlns="http://www.w3.org/2000/svg" xmlns:xlink="http://www.w3.org/1999/xlink" x="0px" y="0px"
	 viewBox="0 0 21 21" style="enable-background:new 0 0 21 21;" xml:space="preserve">
<style type="text/css">
	.st0{fill:#246E4D;}
	.st1{fill:#707070;}
	.st2{fill:#BDBCBC;}
	.st3{fill:#EAEFEC;}
	.st4{fill:#D7E0D8;}
	.st5{fill:none;}
	.st6{fill:#FFFFFF;}
	.st7{fill:#6F6F6E;}
	.st8{fill:#6F6F6F;}
	.st9{fill:none;stroke:#1D1D1B;stroke-width:0.7087;stroke-miterlimit:10;}
	.st10{fill:#1D1D1B;}
	.st11{fill:#FFFFFF;stroke:#B3B3B3;stroke-width:0.7087;stroke-miterlimit:10;}
	.st12{fill:#FFFFFF;stroke:#979797;stroke-width:0.7087;stroke-miterlimit:10;}
	.st13{fill:#FFFFFF;stroke:#CCCCCC;stroke-width:0.7087;stroke-miterlimit:10;}
	.st14{fill:none;stroke:#246E4D;stroke-width:0.992;stroke-linecap:round;stroke-linejoin:round;stroke-miterlimit:10;}
	.st15{fill:none;stroke:#246E4D;stroke-width:0.992;stroke-miterlimit:10;}
	.st16{fill:#9EC420;}
	.st17{fill:#6BBE9F;}
	.st18{fill:#D0EBFC;}
	.st19{fill:#5BC5F2;}
	.st20{fill:#006AA9;}
	.st21{fill:#FF0000;}
	.st22{fill:#39B54A;}
	.st23{fill:#FFFF00;}
	.st24{fill:#0000FF;}
	.st25{fill:#EEE758;stroke:#A19F3D;stroke-miterlimit:10;}
	.st26{fill:#246E4D;stroke:#246E4D;stroke-width:1.4173;stroke-linecap:round;stroke-linejoin:round;stroke-miterlimit:10;}
	.st27{fill:#FFFFFF;stroke:#246E4D;stroke-miterlimit:10;}
	.st28{fill:#246E4D;stroke:#246E4D;stroke-miterlimit:10;}
</style>
<g id="Layer_1">
</g>
<g id="locator_x5F_white">
</g>
<g id="locator_x5F_green">
</g>
<g id="operations_x5F_white">
</g>
<g id="operations_x5F_green">
</g>
<g id="metadata_x5F_white">
</g>
<g id="metadata_x5F_green">
</g>
<g id="create_x5F_white">
</g>
<g id="create_x5F_green">
</g>
<g id="messages_x5F_white">
</g>
<g id="messages_x5F_green">
</g>
<g id="progress_x5F_white">
</g>
<g id="progress_x5F_green">
</g>
<g id="settings_x5F_white">
</g>
<g id="settings_x5F_green">
</g>
<g id="infowehite">
</g>
<g id="info_x5F_green">
</g>
<g id="action_x5F_grey">
</g>
<g id="action_x5F_green">
</g>
<g id="filter_x5F_grey">
</g>
<g id="filter_x5F_green">
</g>
<g id="grid_x5F_grey">
</g>
<g id="grid_x5F_green">
</g>
<g id="list_x5F_grey">
</g>
<g id="l_x3B_ist_x5F_green">
</g>
<g id="spatial_x5F_grey">
</g>
<g id="spatial_x5F_green">
</g>
<g id="thumbs_x5F_grey">
</g>
<g id="thumbs_x5F_green">
</g>
<g id="add_x5F_black">
</g>
<g id="add_x5F_green">
</g>
<g id="delete_x5F_black">
</g>
<g id="delete_x5F_green">
</g>
<g id="refresh_x5F_black">
</g>
<g id="refresh_x5F_green">
</g>
<g id="full_x5F_grey">
</g>
<g id="full_x5F_green">
</g>
<g id="full_x5F_lgiht">
</g>
<g id="pan_x5F_grey">
</g>
<g id="pan_x5F_green">
	<rect x="0" y="0" class="st4" width="21" height="21"/>
	<rect x="1.3" y="1.6" class="st12" width="11.3" height="17.1"/>
	<path class="st0" d="M18.2,13.1l-0.3,0.3l-2-1.8c0.2-1.2,0-2.5-0.8-3.7c-1.2-2.1-2.5-4.1-3.7-6.2c-0.2-0.4-0.5-0.8-1-0.9
		c-0.4-0.1-0.9,0-1.1,0.4C9,1.6,9,2.1,9.3,2.5c0.5,0.8,1,1.7,1.5,2.5c0.1,0.2,0.3,0.4,0.2,0.7C10.4,5.2,10.1,4.6,9.7,4
		C9,3.2,8.5,2.3,7.9,1.5C7.5,0.9,6.8,0.7,6.2,1.1C5.7,1.4,5.6,2.2,6.1,2.8c1,1.4,2,2.9,3,4.3C8.7,7.2,8.6,6.9,8.5,6.8
		C7.3,5.5,6,4.3,4.8,3C4.2,2.4,3.4,2.3,2.9,2.8C2.4,3.3,2.5,3.9,3.2,4.6C4.4,5.8,5.5,7,6.7,8.1c0.2,0.2,0.5,0.3,0.3,0.6
		C6.7,8.9,6.5,8.6,6.4,8.5C5.3,7.7,4.2,6.9,3.2,6.1C2.4,5.5,1.7,5.5,1.3,6C0.8,6.6,1,7.3,1.9,8C4,9.5,6,11.1,8.1,12.7
		c0.1,0.1,0.2,0.2,0.5,0.5c-1.1,0-1.9-0.3-2.8-0.5c-0.5-0.1-1-0.2-1.5-0.3c-0.7-0.1-1.2,0.3-1.3,0.9C3,14,3.4,14.6,4,14.6
		c2.2,0.3,4.3,0.9,6.4,1.2c0.8,0.1,1.5,0.1,2.2-0.2l1.9,1.7l-1.2,1.4l1.8,1.5l4.8-5.7L18.2,13.1z"/>
</g>
<g id="pan_x5F_light">
</g>
<g id="zoomin_x5F_grey">
</g>
<g id="zoomin_x5F_green">
</g>
<g id="zoomin_x5F_light">
</g>
<g id="zoomout_x5F_grey">
</g>
<g id="zoomout_x5F_green">
</g>
<g id="zoomout_x5F_light">
</g>
<g id="pointinfogrey">
</g>
<g id="pointinfo_x5F_green">
</g>
<g id="pointinfo_x5F_light">
</g>
</svg>
