<?xml version="1.0" encoding="utf-8"?>
<!-- Generator: Adobe Illustrator 22.0.1, SVG Export Plug-In . SVG Version: 6.00 Build 0)  -->
<svg version="1.1" xmlns="http://www.w3.org/2000/svg" xmlns:xlink="http://www.w3.org/1999/xlink" x="0px" y="0px"
	 viewBox="0 0 21 21" style="enable-background:new 0 0 21 21;" xml:space="preserve">
<style type="text/css">
	.st0{fill:#246E4D;}
	.st1{fill:#707070;}
	.st2{fill:#BDBCBC;}
	.st3{fill:#EAEFEC;}
	.st4{fill:#D7E0D8;}
	.st5{fill:none;}
	.st6{fill:#FFFFFF;}
	.st7{fill:#6F6F6E;}
	.st8{fill:#6F6F6F;}
	.st9{fill:none;stroke:#1D1D1B;stroke-width:0.7087;stroke-miterlimit:10;}
	.st10{fill:#1D1D1B;}
	.st11{fill:none;stroke:#246E4D;stroke-width:0.992;stroke-linecap:round;stroke-linejoin:round;stroke-miterlimit:10;}
	.st12{fill:none;stroke:#246E4D;stroke-width:0.992;stroke-miterlimit:10;}
	.st13{fill:#9EC420;}
	.st14{fill:#6BBE9F;}
	.st15{fill:#D0EBFC;}
	.st16{fill:#5BC5F2;}
	.st17{fill:#006AA9;}
	.st18{fill:#FF0000;}
	.st19{fill:#39B54A;}
	.st20{fill:#FFFF00;}
	.st21{fill:#0000FF;}
	.st22{fill:#EEE758;stroke:#A19F3D;stroke-miterlimit:10;}
	.st23{fill:#246E4D;stroke:#246E4D;stroke-width:1.4173;stroke-linecap:round;stroke-linejoin:round;stroke-miterlimit:10;}
	.st24{fill:#FFFFFF;stroke:#246E4D;stroke-miterlimit:10;}
	.st25{fill:#246E4D;stroke:#246E4D;stroke-miterlimit:10;}
</style>
<g id="Layer_1">
</g>
<g id="locator_x5F_white">
</g>
<g id="locator_x5F_green">
</g>
<g id="operations_x5F_white">
</g>
<g id="operations_x5F_green">
</g>
<g id="metadata_x5F_white">
</g>
<g id="metadata_x5F_green">
</g>
<g id="create_x5F_white">
</g>
<g id="create_x5F_green">
</g>
<g id="messages_x5F_white">
</g>
<g id="messages_x5F_green">
</g>
<g id="progress_x5F_white">
</g>
<g id="progress_x5F_green">
</g>
<g id="settings_x5F_white">
</g>
<g id="settings_x5F_green">
</g>
<g id="infowehite">
</g>
<g id="info_x5F_green">
</g>
<g id="action_x5F_grey">
</g>
<g id="action_x5F_green">
</g>
<g id="filter_x5F_grey">
</g>
<g id="filter_x5F_green">
</g>
<g id="grid_x5F_grey">
</g>
<g id="grid_x5F_green">
</g>
<g id="list_x5F_grey">
</g>
<g id="l_x3B_ist_x5F_green">
</g>
<g id="spatial_x5F_grey">
</g>
<g id="spatial_x5F_green">
</g>
<g id="thumbs_x5F_grey">
</g>
<g id="thumbs_x5F_green">
</g>
<g id="add_x5F_black">
</g>
<g id="add_x5F_green">
</g>
<g id="delete_x5F_black">
</g>
<g id="delete_x5F_green">
</g>
<g id="refresh_x5F_black">
</g>
<g id="refresh_x5F_green">
</g>
<g id="full_x5F_grey">
</g>
<g id="full_x5F_green">
</g>
<g id="full_x5F_lgiht">
</g>
<g id="pan_x5F_grey">
</g>
<g id="pan_x5F_green">
</g>
<g id="pan_x5F_light">
</g>
<g id="zoomin_x5F_grey">
</g>
<g id="zoomin_x5F_green">
</g>
<g id="zoomin_x5F_light">
</g>
<g id="zoomout_x5F_grey">
</g>
<g id="zoomout_x5F_green">
</g>
<g id="zoomout_x5F_light">
</g>
<g id="pointinfogrey">
</g>
<g id="pointinfo_x5F_green">
	<rect x="0" y="0" class="st4" width="21" height="21"/>
	<path class="st6" d="M3.5,1.4C3.8,1.6,4,1.8,4.2,2C7.8,5.5,11.4,8.9,15,12.4c0,0,0.1,0.1,0.2,0.2c-1.8,0-3.5,0.1-5.3,0.1
		c0.2,0.5,0.4,1.1,0.7,1.6c0.6,1.4,1.2,2.7,1.7,4.1c0,0.1,0,0.2-0.1,0.2c-0.8,0.3-1.5,0.6-2.3,1c-0.1,0.1-0.2,0-0.2-0.1
		c-0.8-1.8-1.6-3.7-2.3-5.5c-0.1-0.2-0.1-0.2-0.2-0.1c-1.2,1.2-2.4,2.4-3.6,3.6c-0.1,0,0-0.1,0-0.1c0-5.3,0-10.5,0-15.8
		C3.5,1.5,3.5,1.5,3.5,1.4L3.5,1.4z"/>
	<path class="st0" d="M15.6,12c0-0.1-0.1-0.1-0.1-0.1l-1.4-1.4c-3.1-3-6.2-6-9.3-9L4.6,1.3C4.4,1.2,4.2,1,4,0.8
		C3.9,0.7,3.6,0.6,3.4,0.7C3.1,0.7,2.8,1,2.8,1.4c0,0.1,0,0.1,0,0.2l0,15.7c-0.1,0.5,0.2,0.8,0.4,0.9l0.1,0c0.3,0.1,0.6,0,0.8-0.2
		L7,15.1l2,4.6c0,0.1,0.2,0.4,0.5,0.5c0.1,0,0.2,0.1,0.3,0.1c0.1,0,0.3,0,0.4-0.1c0.7-0.3,1.4-0.6,2.3-1c0.3-0.1,0.4-0.3,0.5-0.5
		c0.1-0.2,0.1-0.5,0-0.7c-0.5-1.1-0.9-2.1-1.4-3.2L11,13.4l4.1-0.1c0.3,0,0.6-0.2,0.7-0.5C16,12.6,15.9,12.3,15.6,12L15.6,12z
		 M9.2,12.3C9.1,12.5,9,12.7,9.1,13l1.1,2.5c0.4,0.9,0.7,1.7,1.1,2.6c-0.4,0.2-0.8,0.3-1.2,0.5l-2.1-4.9c0-0.1-0.2-0.4-0.5-0.5
		c0,0-0.1,0-0.2,0c-0.3-0.1-0.6,0-0.8,0.3c-0.8,0.8-1.5,1.5-2.3,2.3l0-12.5l9,8.6l-3.4,0.1C9.6,11.9,9.3,12,9.2,12.3z M9.5,12.8
		L9.5,12.8L9.5,12.8L9.5,12.8z"/>
	<g>
		<path class="st0" d="M3.5,1.4C3.5,1.4,3.5,1.4,3.5,1.4C3.5,1.4,3.5,1.4,3.5,1.4C3.6,1.4,3.6,1.4,3.5,1.4C3.5,1.4,3.5,1.4,3.5,1.4z
			"/>
		<path class="st0" d="M3.4,1.8c-0.1,0-0.2-0.2-0.3-0.3c0-0.1,0-0.3,0.1-0.4C3.3,1,3.4,1,3.6,1c0.1,0,0.2,0.1,0.3,0.1
			C4,1.2,4,1.4,3.9,1.6c0,0.1-0.1,0.2-0.2,0.3c0,0-0.1,0-0.1,0l0,0C3.5,1.9,3.4,1.9,3.4,1.8z M3.2,1.6C3.2,1.6,3.2,1.7,3.2,1.6
			l0.3-0.2L3.2,1.6z M3.5,1C3.5,1,3.5,1,3.5,1C3.5,1,3.5,1,3.5,1z"/>
	</g>
	<circle class="st6" cx="11.9" cy="8.5" r="5.3"/>
	<path class="st0" d="M11.9,2.4c-3.3,0-6,2.7-6,6c0,3.3,2.7,6,6,6c3.3,0,6-2.7,6-6C17.9,5.1,15.2,2.4,11.9,2.4z M16.4,8.5
		c0,2.5-2,4.5-4.5,4.5c-2.5,0-4.5-2-4.5-4.5C7.4,6,9.4,4,11.9,4C14.3,4,16.4,6,16.4,8.5z"/>
	<g>
		<rect x="11.1" y="6.8" class="st0" width="1.6" height="5.3"/>
		<rect x="11.1" y="4.9" class="st0" width="1.6" height="1.5"/>
	</g>
</g>
<g id="pointinfo_x5F_light">
</g>
</svg>
