<?xml version="1.0" encoding="utf-8"?>
<!-- Generator: Adobe Illustrator 22.0.1, SVG Export Plug-In . SVG Version: 6.00 Build 0)  -->
<svg version="1.1" xmlns="http://www.w3.org/2000/svg" xmlns:xlink="http://www.w3.org/1999/xlink" x="0px" y="0px"
	 viewBox="0 0 36 36" style="enable-background:new 0 0 36 36;" xml:space="preserve">
<style type="text/css">
	.st0{fill:#246E4D;}
	.st1{fill:#707070;}
	.st2{fill:#BDBCBC;}
	.st3{fill:#EAEFEC;}
	.st4{fill:#D7E0D8;}
	.st5{fill:none;}
	.st6{fill:#FFFFFF;}
	.st7{fill:#6F6F6E;}
	.st8{fill:#6F6F6F;}
	.st9{fill:none;stroke:#1D1D1B;stroke-width:0.7087;stroke-miterlimit:10;}
	.st10{fill:#1D1D1B;}
	.st11{fill:none;stroke:#246E4D;stroke-width:0.992;stroke-linecap:round;stroke-linejoin:round;stroke-miterlimit:10;}
	.st12{fill:none;stroke:#246E4D;stroke-width:0.992;stroke-miterlimit:10;}
	.st13{fill:#9EC420;}
	.st14{fill:#6BBE9F;}
	.st15{fill:#D0EBFC;}
	.st16{fill:#5BC5F2;}
	.st17{fill:#006AA9;}
	.st18{fill:#FF0000;}
	.st19{fill:#39B54A;}
	.st20{fill:#FFFF00;}
	.st21{fill:#0000FF;}
	.st22{fill:#EEE758;stroke:#A19F3D;stroke-miterlimit:10;}
	.st23{fill:#246E4D;stroke:#246E4D;stroke-width:1.4173;stroke-linecap:round;stroke-linejoin:round;stroke-miterlimit:10;}
	.st24{fill:#FFFFFF;stroke:#246E4D;stroke-miterlimit:10;}
	.st25{fill:#246E4D;stroke:#246E4D;stroke-miterlimit:10;}
</style>
<g id="Layer_1">
</g>
<g id="locator_x5F_white">
</g>
<g id="locator_x5F_green">
</g>
<g id="operations_x5F_white">
</g>
<g id="operations_x5F_green">
</g>
<g id="metadata_x5F_white">
</g>
<g id="metadata_x5F_green">
</g>
<g id="create_x5F_white">
</g>
<g id="create_x5F_green">
</g>
<g id="messages_x5F_white">
</g>
<g id="messages_x5F_green">
</g>
<g id="progress_x5F_white">
</g>
<g id="progress_x5F_green">
</g>
<g id="settings_x5F_white">
</g>
<g id="settings_x5F_green">
	<rect x="0" y="-0.1" class="st0" width="36" height="36"/>
	<path class="st6" d="M29.1,19.4c0.1-0.5,0.1-1,0.1-1.5s0-1-0.1-1.5l3.1-2.5c0.3-0.2,0.4-0.6,0.2-1l-3-5.2c-0.2-0.3-0.6-0.4-0.9-0.3
		L24.8,9C24,8.4,23.2,8,22.3,7.6l-0.6-4C21.7,3.3,21.4,3,21,3h-6c-0.4,0-0.7,0.3-0.7,0.6l-0.6,4C12.8,8,12,8.5,11.2,9L7.5,7.6
		c-0.3-0.1-0.7,0-0.9,0.3l-3,5.2c-0.2,0.3-0.1,0.7,0.2,1l3.1,2.5c-0.1,0.5-0.1,1-0.1,1.5s0,1,0.1,1.5l-3.1,2.5
		c-0.3,0.2-0.4,0.6-0.2,1l3,5.2c0.2,0.3,0.6,0.4,0.9,0.3l3.7-1.5c0.8,0.6,1.6,1.1,2.5,1.5l0.6,4c0,0.4,0.4,0.6,0.7,0.6h6
		c0.4,0,0.7-0.3,0.7-0.6l0.6-4c0.9-0.4,1.7-0.9,2.5-1.5l3.7,1.5c0.3,0.1,0.7,0,0.9-0.3l3-5.2c0.2-0.3,0.1-0.7-0.2-1L29.1,19.4z
		 M18,23.1c-2.9,0-5.2-2.3-5.2-5.2s2.3-5.2,5.2-5.2s5.2,2.3,5.2,5.2S20.9,23.1,18,23.1z"/>
</g>
<g id="infowehite">
</g>
<g id="info_x5F_green">
</g>
<g id="action_x5F_grey">
</g>
<g id="action_x5F_green">
</g>
<g id="filter_x5F_grey">
</g>
<g id="filter_x5F_green">
</g>
<g id="grid_x5F_grey">
</g>
<g id="grid_x5F_green">
</g>
<g id="list_x5F_grey">
</g>
<g id="l_x3B_ist_x5F_green">
</g>
<g id="spatial_x5F_grey">
</g>
<g id="spatial_x5F_green">
</g>
<g id="thumbs_x5F_grey">
</g>
<g id="thumbs_x5F_green">
</g>
<g id="add_x5F_black">
</g>
<g id="add_x5F_green">
</g>
<g id="delete_x5F_black">
</g>
<g id="delete_x5F_green">
</g>
<g id="refresh_x5F_black">
</g>
<g id="refresh_x5F_green">
</g>
<g id="full_x5F_grey">
</g>
<g id="full_x5F_green">
</g>
<g id="full_x5F_lgiht">
</g>
<g id="pan_x5F_grey">
</g>
<g id="pan_x5F_green">
</g>
<g id="pan_x5F_light">
</g>
<g id="zoomin_x5F_grey">
</g>
<g id="zoomin_x5F_green">
</g>
<g id="zoomin_x5F_light">
</g>
<g id="zoomout_x5F_grey">
</g>
<g id="zoomout_x5F_green">
</g>
<g id="zoomout_x5F_light">
</g>
<g id="pointinfogrey">
</g>
<g id="pointinfo_x5F_green">
</g>
<g id="pointinfo_x5F_light">
</g>
</svg>
