<?xml version="1.0" encoding="utf-8"?>
<!-- Generator: Adobe Illustrator 22.0.1, SVG Export Plug-In . SVG Version: 6.00 Build 0)  -->
<svg version="1.1" xmlns="http://www.w3.org/2000/svg" xmlns:xlink="http://www.w3.org/1999/xlink" x="0px" y="0px"
	 viewBox="0 0 36 36" style="enable-background:new 0 0 36 36;" xml:space="preserve">
<style type="text/css">
	.st0{display:none;}
	.st1{display:inline;fill:#246E4D;}
	.st2{display:inline;fill:#707070;}
	.st3{display:inline;fill:#BDBCBC;}
	.st4{display:inline;fill:#EAEFEC;}
	.st5{display:inline;fill:#D7E0D8;}
	.st6{fill:none;}
	.st7{fill:#FFFFFF;}
	.st8{fill:#246E4D;}
	.st9{fill:#6F6F6F;}
	.st10{fill:#6F6F6E;}
	.st11{fill:none;stroke:#1D1D1B;stroke-width:0.7087;stroke-miterlimit:10;}
	.st12{fill:#EAEFEC;}
	.st13{fill:#1D1D1B;}
	.st14{fill:#D7E0D8;}
	.st15{fill:#BDBCBC;}
</style>
<g id="Layer_1" class="st0">
</g>
<g id="locator_x5F_white">
</g>
<g id="locator_x5F_green">
</g>
<g id="operations_x5F_white">
</g>
<g id="operations_x5F_green">
</g>
<g id="metadata_x5F_white">
</g>
<g id="metadata_x5F_green">
</g>
<g id="create_x5F_white">
</g>
<g id="create_x5F_green">
</g>
<g id="messages_x5F_white">
</g>
<g id="messages_x5F_green">
</g>
<g id="progress_x5F_white">
</g>
<g id="progress_x5F_green">
</g>
<g id="settings_x5F_white">
</g>
<g id="settings_x5F_green">
	<rect x="0" y="-0.1" class="st8" width="36" height="36"/>
	<path class="st7" d="M29.9,19.5c0.1-0.5,0.1-1,0.1-1.6s0-1.1-0.1-1.6l3.4-2.6c0.3-0.2,0.4-0.7,0.2-1l-3.2-5.5
		c-0.2-0.4-0.6-0.5-1-0.4l-4,1.6c-0.8-0.6-1.7-1.2-2.7-1.6L22,2.6c0-0.4-0.4-0.7-0.8-0.7h-6.4c-0.4,0-0.7,0.3-0.8,0.7l-0.6,4.2
		c-1,0.4-1.9,0.9-2.7,1.6l-4-1.6c-0.4-0.1-0.8,0-1,0.4l-3.2,5.5c-0.2,0.4-0.1,0.8,0.2,1l3.4,2.6c-0.1,0.5-0.1,1-0.1,1.6
		s0,1.1,0.1,1.6l-3.4,2.6c-0.3,0.2-0.4,0.7-0.2,1l3.2,5.5C6,29,6.4,29.1,6.8,29l4-1.6c0.8,0.6,1.7,1.2,2.7,1.6l0.6,4.2
		c0,0.4,0.4,0.7,0.8,0.7h6.4c0.4,0,0.7-0.3,0.8-0.7l0.6-4.2c1-0.4,1.9-0.9,2.7-1.6l4,1.6c0.4,0.1,0.8,0,1-0.4l3.2-5.5
		c0.2-0.4,0.1-0.8-0.2-1L29.9,19.5z M18,23.5c-3.1,0-5.6-2.5-5.6-5.6s2.5-5.6,5.6-5.6s5.6,2.5,5.6,5.6S21.1,23.5,18,23.5z"/>
</g>
<g id="infowehite">
</g>
<g id="info_x5F_green">
</g>
<g id="action_x5F_grey">
</g>
<g id="action_x5F_green">
</g>
<g id="filter_x5F_grey">
</g>
<g id="filter_x5F_green">
</g>
<g id="grid_x5F_grey">
</g>
<g id="grid_x5F_green">
</g>
<g id="list_x5F_grey">
</g>
<g id="l_x3B_ist_x5F_green">
</g>
<g id="spatial_x5F_grey">
</g>
<g id="spatial_x5F_green">
</g>
<g id="thumbs_x5F_grey">
</g>
<g id="thumbs_x5F_green">
</g>
<g id="add_x5F_black">
</g>
<g id="add_x5F_green">
</g>
<g id="delete_x5F_black">
</g>
<g id="delete_x5F_green">
</g>
<g id="refresh_x5F_black">
</g>
<g id="refresh_x5F_green">
</g>
<g id="full_x5F_grey">
</g>
<g id="full_x5F_green">
</g>
<g id="full_x5F_lgiht">
</g>
<g id="pan_x5F_grey">
</g>
<g id="pan_x5F_green">
</g>
<g id="pan_x5F_light">
</g>
<g id="zoomin_x5F_grey">
</g>
<g id="zoomin_x5F_green">
</g>
<g id="zoomin_x5F_light">
</g>
<g id="zoomout_x5F_grey">
</g>
<g id="zoomout_x5F_green">
</g>
<g id="zoomout_x5F_light">
</g>
<g id="pointinfogrey">
</g>
<g id="pointinfo_x5F_green">
</g>
<g id="pointinfo_x5F_light">
</g>
</svg>
