<?xml version="1.0" encoding="utf-8"?>
<!-- Generator: Adobe Illustrator 22.0.1, SVG Export Plug-In . SVG Version: 6.00 Build 0)  -->
<svg version="1.1" xmlns="http://www.w3.org/2000/svg" xmlns:xlink="http://www.w3.org/1999/xlink" x="0px" y="0px"
	 viewBox="0 0 26 26" style="enable-background:new 0 0 26 26;" xml:space="preserve">
<style type="text/css">
	.st0{fill:#246E4D;}
	.st1{fill:#707070;}
	.st2{fill:#BDBCBC;}
	.st3{fill:#EAEFEC;}
	.st4{fill:#D7E0D8;}
	.st5{fill:none;}
	.st6{fill:#FFFFFF;}
	.st7{fill:#6F6F6E;}
	.st8{fill:#6F6F6F;}
	.st9{fill:none;stroke:#1D1D1B;stroke-width:0.7087;stroke-miterlimit:10;}
	.st10{fill:#1D1D1B;}
	.st11{fill:none;stroke:#246E4D;stroke-width:0.992;stroke-linecap:round;stroke-linejoin:round;stroke-miterlimit:10;}
	.st12{fill:none;stroke:#246E4D;stroke-width:0.992;stroke-miterlimit:10;}
	.st13{fill:#9EC420;}
	.st14{fill:#6BBE9F;}
	.st15{fill:#D0EBFC;}
	.st16{fill:#5BC5F2;}
	.st17{fill:#006AA9;}
	.st18{fill:#FF0000;}
	.st19{fill:#39B54A;}
	.st20{fill:#FFFF00;}
	.st21{fill:#0000FF;}
	.st22{fill:#EEE758;stroke:#A19F3D;stroke-miterlimit:10;}
	.st23{fill:#246E4D;stroke:#246E4D;stroke-width:1.4173;stroke-linecap:round;stroke-linejoin:round;stroke-miterlimit:10;}
	.st24{fill:#FFFFFF;stroke:#246E4D;stroke-miterlimit:10;}
	.st25{fill:#246E4D;stroke:#246E4D;stroke-miterlimit:10;}
</style>
<g id="Layer_1">
</g>
<g id="locator_x5F_white">
</g>
<g id="locator_x5F_green">
</g>
<g id="operations_x5F_white">
</g>
<g id="operations_x5F_green">
</g>
<g id="metadata_x5F_white">
</g>
<g id="metadata_x5F_green">
</g>
<g id="create_x5F_white">
</g>
<g id="create_x5F_green">
</g>
<g id="messages_x5F_white">
</g>
<g id="messages_x5F_green">
</g>
<g id="progress_x5F_white">
</g>
<g id="progress_x5F_green">
</g>
<g id="settings_x5F_white">
</g>
<g id="settings_x5F_green">
</g>
<g id="infowehite">
</g>
<g id="info_x5F_green">
</g>
<g id="action_x5F_grey">
</g>
<g id="action_x5F_green">
</g>
<g id="filter_x5F_grey">
</g>
<g id="filter_x5F_green">
</g>
<g id="grid_x5F_grey">
</g>
<g id="grid_x5F_green">
</g>
<g id="list_x5F_grey">
</g>
<g id="l_x3B_ist_x5F_green">
</g>
<g id="spatial_x5F_grey">
	<rect x="0.1" y="0" class="st5" width="26" height="26"/>
	<path class="st7" d="M21.7,5.4C21.7,5.4,21.7,5.4,21.7,5.4L23.1,4c0.3-0.3,0.3-0.7,0-1c-0.3-0.3-0.7-0.3-1,0l-1.4,1.4
		c-4.5-4-11.4-3.8-15.7,0.5C0.6,9.1,0.5,16.1,4.4,20.6l-1.3,1.3c-0.3,0.3-0.3,0.7,0,1c0.1,0.1,0.3,0.2,0.5,0.2S4,23.1,4.1,23
		l1.3-1.3c4.4,3.9,11,3.8,15.3-0.1c0.1-0.1,0.3-0.2,0.4-0.4c0.1-0.1,0.3-0.3,0.4-0.4C25.5,16.4,25.6,9.7,21.7,5.4z M18.8,5
		c-0.5,0.2-1.1,0.6-1.7,1c-0.2,0.2-0.5,0.3-0.7,0.5C15.7,6,14.9,5.5,14.2,5C15.9,4.5,17.5,4.5,18.8,5z M5.2,18.7
		c-0.4-1-0.5-2.2-0.3-3.4c0.3,0.6,0.8,1.2,1.2,1.8C5.7,17.7,5.4,18.2,5.2,18.7z M5.5,13.1c0.4-0.9,0.9-1.9,1.5-2.8
		c0.7,0.9,1.5,1.8,2.3,2.7C8.4,14,7.7,15,7,15.8C6.4,15,5.9,14,5.5,13.1z M7.9,9.1c0.2-0.2,0.4-0.5,0.7-0.7c1.2-1.2,2.5-2.1,3.8-2.7
		c0.9,0.4,1.9,1,2.8,1.7c-1.3,1-2.6,2.2-4,3.6c-0.3,0.3-0.6,0.6-0.9,1C9.3,10.9,8.6,10,7.9,9.1z M10.3,14.1c0.3,0.3,0.5,0.5,0.8,0.8
		c1.4,1.4,2.8,2.7,4.1,3.7c-0.9,0.7-1.9,1.3-2.8,1.7c-1.4-0.6-2.7-1.6-3.9-2.8c-0.2-0.2-0.4-0.4-0.6-0.6
		C8.6,16.2,9.3,15.2,10.3,14.1z M12.1,13.9c-0.3-0.3-0.6-0.6-0.8-0.9c0.3-0.3,0.6-0.7,1-1c1.5-1.5,2.9-2.7,4.1-3.7
		c0.2,0.2,0.5,0.4,0.7,0.7c1.3,1.3,2.3,2.7,3,4c-0.7,1.3-1.7,2.6-3,3.9c-0.3,0.3-0.5,0.5-0.8,0.7C15.2,16.8,13.7,15.5,12.1,13.9z
		 M15.7,3.3c-0.3,0-0.5,0.1-0.8,0.1c-0.8,0.2-1.7,0.4-2.5,0.7c-0.9-0.3-1.7-0.6-2.5-0.7C11.8,2.8,13.8,2.8,15.7,3.3z M10.5,5.1
		c-1.1,0.6-2.1,1.4-3,2.3C7.4,7.6,7.2,7.7,7.1,7.9c-0.7-1-1-1.7-1-2C7.1,4.8,8.7,4.6,10.5,5.1z M5.1,7.4c0.2,0.5,0.6,1.1,1,1.7
		C5.6,9.7,5.2,10.3,4.9,11C4.6,9.7,4.7,8.4,5.1,7.4z M3.5,14.7c-0.1,0.3-0.1,0.6-0.1,1c-0.5-1.7-0.5-3.5-0.1-5.2
		c0,0.3,0.1,0.5,0.1,0.8c0.1,0.6,0.3,1.2,0.5,1.8C3.8,13.7,3.6,14.2,3.5,14.7z M6.1,20.1L6.1,20.1C6.1,20.1,6.2,20.2,6.1,20.1
		C6.1,20.2,6.1,20.2,6.1,20.1z M6.2,20.2c0-0.3,0.3-1,0.9-2c0.1,0.1,0.2,0.3,0.4,0.4c0.9,0.9,2,1.7,3,2.4
		C8.8,21.4,7.2,21.2,6.2,20.2z M10.1,22.6c0.7-0.1,1.5-0.3,2.3-0.6c0.8,0.3,1.6,0.6,2.4,0.7c0.2,0,0.4,0.1,0.6,0.1
		C13.7,23.2,11.8,23.1,10.1,22.6z M14.3,21c0.7-0.4,1.4-0.9,2.2-1.5c0.2,0.2,0.4,0.3,0.6,0.4c0.7,0.4,1.2,0.8,1.7,1
		C17.5,21.5,15.9,21.5,14.3,21z M20.5,19.8c-0.1,0.1-0.2,0.2-0.2,0.2c-0.4,0-1.3-0.4-2.7-1.4c0.2-0.2,0.4-0.4,0.6-0.6
		c1.1-1.1,1.9-2.2,2.7-3.3C21.5,16.7,21.4,18.5,20.5,19.8z M20.8,11.5c-0.7-1.2-1.6-2.3-2.8-3.4c-0.2-0.2-0.4-0.3-0.5-0.5
		c1.4-1,2.3-1.5,2.8-1.5c0.1,0.1,0.2,0.2,0.3,0.3C21.5,7.5,21.6,9.4,20.8,11.5z M21.7,13.1c0.5-1,0.8-2,1-3c0.6,1.9,0.5,4-0.1,5.9
		C22.5,15.1,22.2,14.1,21.7,13.1z"/>
</g>
<g id="spatial_x5F_green">
</g>
<g id="thumbs_x5F_grey">
</g>
<g id="thumbs_x5F_green">
</g>
<g id="add_x5F_black">
</g>
<g id="add_x5F_green">
</g>
<g id="delete_x5F_black">
</g>
<g id="delete_x5F_green">
</g>
<g id="refresh_x5F_black">
</g>
<g id="refresh_x5F_green">
</g>
<g id="full_x5F_grey">
</g>
<g id="full_x5F_green">
</g>
<g id="full_x5F_lgiht">
</g>
<g id="pan_x5F_grey">
</g>
<g id="pan_x5F_green">
</g>
<g id="pan_x5F_light">
</g>
<g id="zoomin_x5F_grey">
</g>
<g id="zoomin_x5F_green">
</g>
<g id="zoomin_x5F_light">
</g>
<g id="zoomout_x5F_grey">
</g>
<g id="zoomout_x5F_green">
</g>
<g id="zoomout_x5F_light">
</g>
<g id="pointinfogrey">
</g>
<g id="pointinfo_x5F_green">
</g>
<g id="pointinfo_x5F_light">
</g>
</svg>
