<?xml version="1.0" encoding="utf-8"?>
<!-- Generator: Adobe Illustrator 22.0.1, SVG Export Plug-In . SVG Version: 6.00 Build 0)  -->
<svg version="1.1" xmlns="http://www.w3.org/2000/svg" xmlns:xlink="http://www.w3.org/1999/xlink" x="0px" y="0px"
	 viewBox="0 0 52 50" style="enable-background:new 0 0 52 50;" xml:space="preserve">
<style type="text/css">
	.st0{fill:#246E4D;}
	.st1{fill:#707070;}
	.st2{fill:#BDBCBC;}
	.st3{fill:#EAEFEC;}
	.st4{fill:#D7E0D8;}
	.st5{fill:none;}
	.st6{fill:#FFFFFF;}
	.st7{fill:#6F6F6E;}
	.st8{fill:#6BBE9F;}
	.st9{fill:#6F6F6F;}
	.st10{fill:none;stroke:#1D1D1B;stroke-width:0.7087;stroke-miterlimit:10;}
	.st11{fill:#1D1D1B;}
	.st12{fill:#B8CEBD;}
	.st13{fill:none;stroke:#246E4D;stroke-width:0.992;stroke-linecap:round;stroke-linejoin:round;stroke-miterlimit:10;}
	.st14{fill:none;stroke:#246E4D;stroke-width:0.992;stroke-miterlimit:10;}
	.st15{fill:#9EC420;}
	.st16{fill:#006AA9;}
	.st17{fill:#5BC5F2;}
	.st18{fill:#D0EBFC;}
	.st19{fill:#FF0000;}
	.st20{fill:#39B54A;}
	.st21{fill:#FFFF00;}
	.st22{fill:#0000FF;}
	.st23{fill:#EEE758;stroke:#A19F3D;stroke-miterlimit:10;}
	.st24{fill:#246E4D;stroke:#246E4D;stroke-width:1.4173;stroke-linecap:round;stroke-linejoin:round;stroke-miterlimit:10;}
	.st25{fill:#FFFFFF;stroke:#246E4D;stroke-miterlimit:10;}
	.st26{fill:#246E4D;stroke:#246E4D;stroke-miterlimit:10;}
	.st27{fill:#ECECEC;}
	.st28{fill:#979797;}
</style>
<g id="Layer_1">
</g>
<g id="locator_x5F_white">
</g>
<g id="locator_x5F_green">
</g>
<g id="operations_x5F_white">
</g>
<g id="operations_x5F_green">
</g>
<g id="metadata_x5F_white">
</g>
<g id="metadata_x5F_green">
</g>
<g id="create_x5F_white">
</g>
<g id="create_x5F_green">
</g>
<g id="messages_x5F_white">
</g>
<g id="messages_x5F_green">
</g>
<g id="progress_x5F_white">
</g>
<g id="progress_x5F_green">
</g>
<g id="settings_x5F_white">
</g>
<g id="settings_x5F_green">
</g>
<g id="infowehite">
</g>
<g id="info_x5F_green">
</g>
<g id="action_x5F_grey">
</g>
<g id="action_x5F_green">
</g>
<g id="filter_x5F_grey">
</g>
<g id="filter_x5F_green">
</g>
<g id="grid_x5F_grey">
</g>
<g id="grid_x5F_green">
</g>
<g id="list_x5F_grey">
</g>
<g id="l_x3B_ist_x5F_green">
</g>
<g id="spatial_x5F_grey">
</g>
<g id="spatial_x5F_green">
</g>
<g id="thumbs_x5F_grey">
</g>
<g id="thumbs_x5F_green">
</g>
<g id="add_x5F_black">
</g>
<g id="add_x5F_green">
</g>
<g id="delete_x5F_black">
</g>
<g id="delete_x5F_green">
</g>
<g id="refresh_x5F_black">
</g>
<g id="refresh_x5F_green">
</g>
<g id="full_x5F_grey">
</g>
<g id="full_x5F_green">
</g>
<g id="full_x5F_lgiht">
</g>
<g id="pan_x5F_grey">
</g>
<g id="pan_x5F_green">
</g>
<g id="pan_x5F_light">
</g>
<g id="zoomin_x5F_grey">
</g>
<g id="zoomin_x5F_green">
</g>
<g id="zoomin_x5F_light">
</g>
<g id="zoomout_x5F_grey">
</g>
<g id="zoomout_x5F_green">
</g>
<g id="zoomout_x5F_light">
</g>
<g id="pointinfogrey">
</g>
<g id="pointinfo_x5F_green">
</g>
<g id="pointinfo_x5F_light">
	<path class="st27" d="M52,50V8c0-4.4-3.6-8-8-8H8C3.6,0,0,3.6,0,8v42H52z"/>
	<path class="st27" d="M1,49h50V8c0-3.8-3.1-7-7-7H8C4.1,1,1,4.1,1,8V49z"/>
	<path class="st7" d="M13.4,22.3h6v-6h-6V22.3z M13.4,29.8h6v-6h-6V29.8z M13.4,14.8h6v-6h-6V14.8z M20.8,22.3h17.9v-6H20.8V22.3z
		 M20.8,29.8h17.9v-6H20.8V29.8z M20.8,8.9v6h17.9v-6H20.8z"/>
	<path class="st28" d="M44,0H8C3.6,0,0,3.6,0,8v42h52V8C52,3.6,48.4,0,44,0z M51,49H1V8c0-3.8,3.1-7,7-7H44c3.8,0,7,3.1,7,7V49z"/>
</g>
</svg>
