<?xml version="1.0" encoding="utf-8"?>
<!-- Generator: Adobe Illustrator 22.0.1, SVG Export Plug-In . SVG Version: 6.00 Build 0)  -->
<svg version="1.1" xmlns="http://www.w3.org/2000/svg" xmlns:xlink="http://www.w3.org/1999/xlink" x="0px" y="0px"
	 viewBox="0 0 52 50" style="enable-background:new 0 0 52 50;" xml:space="preserve">
<style type="text/css">
	.st0{fill:#246E4D;}
	.st1{fill:#707070;}
	.st2{fill:#BDBCBC;}
	.st3{fill:#EAEFEC;}
	.st4{fill:#D7E0D8;}
	.st5{fill:none;}
	.st6{fill:#FFFFFF;}
	.st7{fill:#6F6F6E;}
	.st8{fill:#6BBE9F;}
	.st9{fill:#6F6F6F;}
	.st10{fill:none;stroke:#1D1D1B;stroke-width:0.7087;stroke-miterlimit:10;}
	.st11{fill:#1D1D1B;}
	.st12{fill:#B8CEBD;}
	.st13{fill:none;stroke:#246E4D;stroke-width:0.992;stroke-linecap:round;stroke-linejoin:round;stroke-miterlimit:10;}
	.st14{fill:none;stroke:#246E4D;stroke-width:0.992;stroke-miterlimit:10;}
	.st15{fill:#9EC420;}
	.st16{fill:#006AA9;}
	.st17{fill:#5BC5F2;}
	.st18{fill:#D0EBFC;}
	.st19{fill:#FF0000;}
	.st20{fill:#39B54A;}
	.st21{fill:#FFFF00;}
	.st22{fill:#0000FF;}
	.st23{fill:#EEE758;stroke:#A19F3D;stroke-miterlimit:10;}
	.st24{fill:#246E4D;stroke:#246E4D;stroke-width:1.4173;stroke-linecap:round;stroke-linejoin:round;stroke-miterlimit:10;}
	.st25{fill:#FFFFFF;stroke:#246E4D;stroke-miterlimit:10;}
	.st26{fill:#246E4D;stroke:#246E4D;stroke-miterlimit:10;}
	.st27{fill:#ECECEC;}
	.st28{fill:#979797;}
</style>
<g id="Layer_1">
</g>
<g id="locator_x5F_white">
</g>
<g id="locator_x5F_green">
</g>
<g id="operations_x5F_white">
</g>
<g id="operations_x5F_green">
</g>
<g id="metadata_x5F_white">
</g>
<g id="metadata_x5F_green">
</g>
<g id="create_x5F_white">
</g>
<g id="create_x5F_green">
</g>
<g id="messages_x5F_white">
</g>
<g id="messages_x5F_green">
</g>
<g id="progress_x5F_white">
</g>
<g id="progress_x5F_green">
</g>
<g id="settings_x5F_white">
</g>
<g id="settings_x5F_green">
</g>
<g id="infowehite">
</g>
<g id="info_x5F_green">
</g>
<g id="action_x5F_grey">
</g>
<g id="action_x5F_green">
</g>
<g id="filter_x5F_grey">
</g>
<g id="filter_x5F_green">
</g>
<g id="grid_x5F_grey">
</g>
<g id="grid_x5F_green">
</g>
<g id="list_x5F_grey">
</g>
<g id="l_x3B_ist_x5F_green">
</g>
<g id="spatial_x5F_grey">
</g>
<g id="spatial_x5F_green">
</g>
<g id="thumbs_x5F_grey">
</g>
<g id="thumbs_x5F_green">
</g>
<g id="add_x5F_black">
</g>
<g id="add_x5F_green">
</g>
<g id="delete_x5F_black">
</g>
<g id="delete_x5F_green">
</g>
<g id="refresh_x5F_black">
</g>
<g id="refresh_x5F_green">
</g>
<g id="full_x5F_grey">
</g>
<g id="full_x5F_green">
</g>
<g id="full_x5F_lgiht">
</g>
<g id="pan_x5F_grey">
</g>
<g id="pan_x5F_green">
</g>
<g id="pan_x5F_light">
</g>
<g id="zoomin_x5F_grey">
</g>
<g id="zoomin_x5F_green">
</g>
<g id="zoomin_x5F_light">
</g>
<g id="zoomout_x5F_grey">
</g>
<g id="zoomout_x5F_green">
</g>
<g id="zoomout_x5F_light">
</g>
<g id="pointinfogrey">
</g>
<g id="pointinfo_x5F_green">
</g>
<g id="pointinfo_x5F_light">
	<path class="st6" d="M52,50V8c0-4.4-3.6-8-8-8H8C3.6,0,0,3.6,0,8v42H52z"/>
	<rect x="8" y="1.3" class="st5" width="36" height="36"/>
	<path class="st0" d="M34.9,11.5C34.9,11.5,34.9,11.5,34.9,11.5l1.4-1.4c0.3-0.3,0.3-0.8,0-1.1c-0.3-0.3-0.8-0.3-1.1,0l-1.4,1.4
		c-4.6-4.1-11.7-3.9-16.2,0.5c-4.4,4.4-4.6,11.5-0.5,16.2l-1.4,1.4c-0.3,0.3-0.3,0.8,0,1.1c0.1,0.1,0.3,0.2,0.5,0.2s0.4-0.1,0.5-0.2
		l1.4-1.4c4.5,4,11.3,3.9,15.8-0.1c0.2-0.1,0.3-0.2,0.4-0.4c0.1-0.1,0.3-0.3,0.4-0.4C38.8,22.8,38.9,16,34.9,11.5z M31.9,11.1
		c-0.5,0.3-1.1,0.6-1.8,1.1c-0.2,0.2-0.5,0.3-0.7,0.5c-0.7-0.6-1.5-1.1-2.2-1.6C28.9,10.6,30.6,10.6,31.9,11.1z M17.9,25.2
		c-0.4-1-0.5-2.2-0.3-3.5c0.4,0.6,0.8,1.3,1.2,1.9C18.4,24.2,18.1,24.7,17.9,25.2z M18.2,19.5c0.4-1,0.9-2,1.5-2.9
		c0.7,0.9,1.5,1.9,2.4,2.8c-0.9,1-1.7,1.9-2.4,2.9C19.1,21.4,18.6,20.4,18.2,19.5z M20.7,15.4c0.2-0.2,0.4-0.5,0.7-0.7
		c1.2-1.2,2.5-2.1,3.9-2.8c0.9,0.4,1.9,1,2.9,1.8c-1.3,1.1-2.7,2.3-4.1,3.7c-0.3,0.3-0.6,0.7-1,1C22.2,17.2,21.4,16.2,20.7,15.4z
		 M23.2,20.5c0.3,0.3,0.5,0.6,0.8,0.8c1.4,1.4,2.9,2.7,4.2,3.8c-1,0.7-1.9,1.3-2.9,1.8c-1.4-0.7-2.8-1.6-4-2.8
		c-0.2-0.2-0.4-0.4-0.6-0.6C21.4,22.6,22.2,21.6,23.2,20.5z M25.1,20.3c-0.3-0.3-0.6-0.6-0.9-0.9c0.3-0.3,0.6-0.7,1-1
		c1.6-1.6,3-2.8,4.2-3.8c0.2,0.2,0.5,0.4,0.7,0.7c1.3,1.3,2.4,2.8,3.1,4.1c-0.7,1.3-1.8,2.7-3,4c-0.3,0.3-0.5,0.5-0.8,0.7
		C28.2,23.2,26.7,21.9,25.1,20.3z M28.7,9.3c-0.3,0-0.5,0.1-0.8,0.1c-0.9,0.2-1.7,0.4-2.5,0.8c-0.9-0.4-1.7-0.6-2.6-0.7
		C24.7,8.9,26.7,8.8,28.7,9.3z M23.4,11.2c-1.1,0.7-2.1,1.5-3.1,2.4c-0.2,0.2-0.3,0.3-0.5,0.5c-0.7-1-1-1.8-1-2.1
		C19.9,11,21.5,10.7,23.4,11.2z M17.8,13.6c0.3,0.5,0.6,1.1,1,1.7c-0.5,0.6-0.9,1.3-1.3,2C17.3,15.9,17.4,14.6,17.8,13.6z
		 M16.2,21.1c-0.1,0.3-0.1,0.7-0.1,1c-0.5-1.7-0.5-3.6-0.1-5.3c0,0.3,0.1,0.5,0.1,0.8c0.1,0.6,0.3,1.3,0.5,1.9
		C16.4,20,16.3,20.6,16.2,21.1z M18.8,26.7L18.8,26.7C18.9,26.7,18.9,26.7,18.8,26.7C18.9,26.7,18.9,26.7,18.8,26.7z M18.9,26.8
		c0-0.3,0.3-1,0.9-2c0.1,0.1,0.3,0.3,0.4,0.4c1,1,2,1.8,3.1,2.4C21.6,28,20,27.8,18.9,26.8z M23,29.2c0.8-0.1,1.5-0.3,2.3-0.6
		c0.8,0.3,1.6,0.6,2.5,0.7c0.2,0,0.4,0.1,0.6,0.1C26.6,29.8,24.7,29.7,23,29.2z M27.2,27.6c0.7-0.4,1.5-0.9,2.2-1.5
		c0.2,0.2,0.4,0.3,0.6,0.4c0.7,0.5,1.3,0.8,1.8,1.1C30.6,28.1,28.9,28.1,27.2,27.6z M33.6,26.3c-0.1,0.1-0.2,0.2-0.2,0.2
		c-0.4,0-1.3-0.5-2.8-1.5c0.2-0.2,0.4-0.4,0.6-0.6c1.1-1.1,2-2.2,2.7-3.4C34.7,23.2,34.6,25,33.6,26.3z M34,17.8
		c-0.7-1.2-1.7-2.4-2.8-3.5c-0.2-0.2-0.4-0.4-0.6-0.5c1.4-1,2.4-1.5,2.9-1.6c0.1,0.1,0.2,0.2,0.3,0.3C34.7,13.7,34.8,15.7,34,17.8z
		 M34.9,19.5c0.5-1.1,0.8-2.1,1-3.1c0.6,2,0.6,4.1-0.1,6.1C35.7,21.5,35.4,20.5,34.9,19.5z"/>
	<path class="st28" d="M44,0H8C3.6,0,0,3.6,0,8v42h1V8c0-3.8,3.1-7,7-7H44c3.8,0,7,3.1,7,7v42h1V8C52,3.6,48.4,0,44,0z"/>
</g>
</svg>
