<?xml version="1.0" encoding="utf-8"?>
<!-- Generator: Adobe Illustrator 22.0.1, SVG Export Plug-In . SVG Version: 6.00 Build 0)  -->
<svg version="1.1" xmlns="http://www.w3.org/2000/svg" xmlns:xlink="http://www.w3.org/1999/xlink" x="0px" y="0px"
	 viewBox="0 0 52 50" style="enable-background:new 0 0 52 50;" xml:space="preserve">
<style type="text/css">
	.st0{fill:#246E4D;}
	.st1{fill:#707070;}
	.st2{fill:#BDBCBC;}
	.st3{fill:#EAEFEC;}
	.st4{fill:#D7E0D8;}
	.st5{fill:none;}
	.st6{fill:#FFFFFF;}
	.st7{fill:#6F6F6E;}
	.st8{fill:#6BBE9F;}
	.st9{fill:#6F6F6F;}
	.st10{fill:none;stroke:#1D1D1B;stroke-width:0.7087;stroke-miterlimit:10;}
	.st11{fill:#1D1D1B;}
	.st12{fill:#B8CEBD;}
	.st13{fill:none;stroke:#246E4D;stroke-width:0.992;stroke-linecap:round;stroke-linejoin:round;stroke-miterlimit:10;}
	.st14{fill:none;stroke:#246E4D;stroke-width:0.992;stroke-miterlimit:10;}
	.st15{fill:#9EC420;}
	.st16{fill:#006AA9;}
	.st17{fill:#5BC5F2;}
	.st18{fill:#D0EBFC;}
	.st19{fill:#FF0000;}
	.st20{fill:#39B54A;}
	.st21{fill:#FFFF00;}
	.st22{fill:#0000FF;}
	.st23{fill:#EEE758;stroke:#A19F3D;stroke-miterlimit:10;}
	.st24{fill:#246E4D;stroke:#246E4D;stroke-width:1.4173;stroke-linecap:round;stroke-linejoin:round;stroke-miterlimit:10;}
	.st25{fill:#FFFFFF;stroke:#246E4D;stroke-miterlimit:10;}
	.st26{fill:#246E4D;stroke:#246E4D;stroke-miterlimit:10;}
	.st27{fill:#ECECEC;}
	.st28{fill:#979797;}
</style>
<g id="Layer_1">
</g>
<g id="locator_x5F_white">
</g>
<g id="locator_x5F_green">
</g>
<g id="operations_x5F_white">
</g>
<g id="operations_x5F_green">
</g>
<g id="metadata_x5F_white">
</g>
<g id="metadata_x5F_green">
</g>
<g id="create_x5F_white">
</g>
<g id="create_x5F_green">
</g>
<g id="messages_x5F_white">
</g>
<g id="messages_x5F_green">
</g>
<g id="progress_x5F_white">
</g>
<g id="progress_x5F_green">
</g>
<g id="settings_x5F_white">
</g>
<g id="settings_x5F_green">
</g>
<g id="infowehite">
</g>
<g id="info_x5F_green">
</g>
<g id="action_x5F_grey">
</g>
<g id="action_x5F_green">
</g>
<g id="filter_x5F_grey">
</g>
<g id="filter_x5F_green">
</g>
<g id="grid_x5F_grey">
</g>
<g id="grid_x5F_green">
</g>
<g id="list_x5F_grey">
</g>
<g id="l_x3B_ist_x5F_green">
</g>
<g id="spatial_x5F_grey">
</g>
<g id="spatial_x5F_green">
</g>
<g id="thumbs_x5F_grey">
</g>
<g id="thumbs_x5F_green">
</g>
<g id="add_x5F_black">
</g>
<g id="add_x5F_green">
</g>
<g id="delete_x5F_black">
</g>
<g id="delete_x5F_green">
</g>
<g id="refresh_x5F_black">
</g>
<g id="refresh_x5F_green">
</g>
<g id="full_x5F_grey">
</g>
<g id="full_x5F_green">
</g>
<g id="full_x5F_lgiht">
</g>
<g id="pan_x5F_grey">
</g>
<g id="pan_x5F_green">
</g>
<g id="pan_x5F_light">
</g>
<g id="zoomin_x5F_grey">
</g>
<g id="zoomin_x5F_green">
</g>
<g id="zoomin_x5F_light">
</g>
<g id="zoomout_x5F_grey">
</g>
<g id="zoomout_x5F_green">
</g>
<g id="zoomout_x5F_light">
</g>
<g id="pointinfogrey">
</g>
<g id="pointinfo_x5F_green">
</g>
<g id="pointinfo_x5F_light">
	<path class="st6" d="M52,50V8c0-4.4-3.6-8-8-8H8C3.6,0,0,3.6,0,8v42H52z"/>
	<g>
		<path class="st0" d="M36.1,5.9h-20c-1,0-1.9,0.9-1.9,1.9v21.4c0,1.1,0.8,1.9,1.9,1.9h20c1,0,1.9-0.9,1.9-1.9V7.8
			C37.9,6.7,37.1,5.9,36.1,5.9z M35.6,27.5c0,0.5-0.7,1.4-1.2,1.4H17.7c-0.5,0-1.2-0.9-1.2-1.4V9.4c0-0.5,0.7-1.3,1.2-1.3h16.7
			c0.5,0,1.1,0.7,1.1,1.3L35.6,27.5z"/>
		<path class="st0" d="M17.9,9.7L18,25h16.1L34,9.7H17.9z M32.2,22.9h-5.7h-2v0h-1.2h-0.7h-0.7h-1.2h-0.7v-4h0.7v-3.3h2.6v4.7h0.6
			v-2.1h2.6v3.3h5.7V22.9z M29.6,19.7c-1.4,0-2.6-1.2-2.6-2.6s1.2-2.6,2.6-2.6c1.4,0,2.6,1.2,2.6,2.6S31,19.7,29.6,19.7z"/>
	</g>
	<path class="st28" d="M44,0H8C3.6,0,0,3.6,0,8v42h1V8c0-3.8,3.1-7,7-7H44c3.8,0,7,3.1,7,7v42h1V8C52,3.6,48.4,0,44,0z"/>
</g>
</svg>
